/* XPM */
static char *_tuzc_bbi45[] = {
/* columns rows colors chars-per-pixel */
"64 64 250 2 ",
"   c #000000",
".  c #010000",
"X  c #010101",
"o  c #020000",
"O  c #030000",
"+  c #020101",
"@  c #030101",
"#  c #020202",
"$  c #030202",
"%  c #040000",
"&  c #040000",
"*  c #050000",
"=  c #040101",
"-  c #050101",
";  c #060000",
":  c #070000",
">  c #060101",
",  c #040202",
"<  c #050202",
"1  c #060202",
"2  c #070202",
"3  c #060303",
"4  c #040404",
"5  c #040000",
"6  c #060404",
"7  c #080000",
"8  c #090000",
"9  c #080101",
"0  c #090101",
"q  c #0A0000",
"w  c #0B0000",
"e  c #0A0101",
"r  c #0B0101",
"t  c #080202",
"y  c #090202",
"u  c #090303",
"i  c #0A0202",
"p  c #0C0000",
"a  c #0D0000",
"s  c #0D0101",
"d  c #0E0000",
"f  c #0F0000",
"g  c #0E0303",
"h  c #080404",
"j  c #080505",
"k  c #090505",
"l  c #0B0404",
"z  c #090606",
"x  c #0C0404",
"c  c #0D0404",
"v  c #0C0505",
"b  c #0D0505",
"n  c #0E0404",
"m  c #0E0505",
"M  c #0E0606",
"N  c #0F0606",
"B  c #0F0909",
"V  c #100000",
"C  c #110000",
"Z  c #100101",
"A  c #120000",
"S  c #130000",
"D  c #110202",
"F  c #140000",
"G  c #160000",
"H  c #170000",
"J  c #170101",
"K  c #150202",
"L  c #110404",
"P  c #100505",
"I  c #110505",
"U  c #120505",
"Y  c #140404",
"T  c #140606",
"R  c #180000",
"E  c #190000",
"W  c #180101",
"Q  c #1B0000",
"!  c #190303",
"~  c #1B0202",
"^  c #1C0000",
"/  c #1E0101",
"(  c #1D0202",
")  c #1D0707",
"_  c #130A0A",
"`  c #140808",
"'  c #140B0B",
"]  c #140C0C",
"[  c #1B0808",
"{  c #180A0A",
"}  c #1C0808",
"|  c #1D0909",
" . c #190D0D",
".. c #1E0E0E",
"X. c #200000",
"o. c #210000",
"O. c #230000",
"+. c #220101",
"@. c #230101",
"#. c #200303",
"$. c #220303",
"%. c #230303",
"&. c #250000",
"*. c #270000",
"=. c #250303",
"-. c #260505",
";. c #280000",
":. c #290000",
">. c #290101",
",. c #2A0000",
"<. c #2B0000",
"1. c #2C0000",
"2. c #2D0000",
"3. c #2F0000",
"4. c #2E0101",
"5. c #2A0404",
"6. c #2F0707",
"7. c #200A0A",
"8. c #280A0A",
"9. c #2E0909",
"0. c #2E0A0A",
"q. c #300000",
"w. c #310000",
"e. c #320000",
"r. c #340000",
"t. c #350000",
"y. c #370000",
"u. c #310606",
"i. c #380000",
"p. c #3A0000",
"a. c #3B0000",
"s. c #3E0000",
"d. c #3A0505",
"f. c #3B0505",
"g. c #300D0D",
"h. c #3F0808",
"j. c #400000",
"k. c #420000",
"l. c #440000",
"z. c #450000",
"x. c #460000",
"c. c #470000",
"v. c #460101",
"b. c #460202",
"n. c #400707",
"m. c #4C0000",
"M. c #4D0000",
"N. c #4D0101",
"B. c #4F0000",
"V. c #520000",
"C. c #530000",
"Z. c #540101",
"A. c #560000",
"S. c #570000",
"D. c #580000",
"F. c #590000",
"G. c #5A0000",
"H. c #5B0000",
"J. c #5D0000",
"K. c #5E0000",
"L. c #5F0000",
"P. c #5E0101",
"I. c #600000",
"U. c #610000",
"Y. c #620000",
"T. c #630101",
"R. c #640000",
"E. c #650000",
"W. c #600404",
"Q. c #650505",
"!. c #680000",
"~. c #690000",
"^. c #690303",
"/. c #6C0000",
"(. c #6C0101",
"). c #6E0000",
"_. c #6F0000",
"`. c #610A0A",
"'. c #700000",
"]. c #710000",
"[. c #700101",
"{. c #720000",
"}. c #730000",
"|. c #720101",
" X c #740000",
".X c #750000",
"XX c #760000",
"oX c #770000",
"OX c #780000",
"+X c #790000",
"@X c #7A0000",
"#X c #7B0000",
"$X c #7C0000",
"%X c #7D0000",
"&X c #7E0000",
"*X c #7F0000",
"=X c #800000",
"-X c #810000",
";X c #820000",
":X c #850000",
">X c #870000",
",X c #890000",
"<X c #8A0000",
"1X c #8C0000",
"2X c #8D0000",
"3X c #8E0000",
"4X c #8F0000",
"5X c #900000",
"6X c #910000",
"7X c #920000",
"8X c #930000",
"9X c #940000",
"0X c #950000",
"qX c #960000",
"wX c #970000",
"eX c #980000",
"rX c #990000",
"tX c #9B0000",
"yX c #9C0000",
"uX c #9D0000",
"iX c #9E0000",
"pX c #9F0000",
"aX c #A00000",
"sX c #A10000",
"dX c #A20000",
"fX c #A30000",
"gX c #A40000",
"hX c #A60000",
"jX c #A70000",
"kX c #A80000",
"lX c #A90000",
"zX c #AA0000",
"xX c #AB0000",
"cX c #AC0000",
"vX c #AD0000",
"bX c #AE0000",
"nX c #AF0000",
"mX c #B00000",
"MX c #B10000",
"NX c #B20000",
"BX c #B30000",
"VX c #B40000",
"CX c #B50000",
"ZX c #B60000",
"AX c #B70000",
"SX c #B80000",
"DX c #B90000",
"FX c #BA0000",
"GX c #BB0000",
"HX c #BC0000",
/* pixels */
"                                                                                                                                ",
"                                                                                                                                ",
"                                                                                                                                ",
"                                                                                                                                ",
"                                                                                                                                ",
"                        ,.    2                                       O         V                                               ",
"                                                                      O                                                         ",
"                                                                                                                                ",
"                                                    %.                          xX                                              ",
"                                                                                                                                ",
"                          .     9.              +X              .                                                               ",
"                            E                                   E                   7.                                          ",
"                              g                     O.      *.                                                                  ",
"                  E.                    4        X  5Xw       & jX    0.            j )     j     #                             ",
"                                          W     t     ,   '   3.`.    :                                                         ",
"                  z               .     <       T     +X).L       2   U.                            G.                          ",
"                                    *       <.    *   * W.kX      &X            m.@                                             ",
"                              +     w.8X      @   HX>.O       ^.  $X1.v   G =                                                   ",
"                                j.    4.7X    N *   d ^   =.}..X    f.aXz.>Xv.a.  J                                             ",
"                                  D.    M qX    3.e 0XNX      i.    =Xp.VXzX  [.                                                ",
"                                    /.    O 2X  A.BX9XCX    S 7X  V eX_.l.^ x.& $                                               ",
"                                      M.    +.V.  @ C.GXvXL.c.zX  {.jXpXZX~.%   F X                                             ",
"                                          @.  8 &.2XBXGXAXaXGXZX<X5XqXGXGXmX. rX    ).o                                         ",
"                                        s.l r.6.r 5XGXGXGXGXGXGXGXGXBXFXCXgXl.pX        z.                                      ",
"                                          q Z R.#XjXGXGXGXGXGXGXGXGXDXBXi.O E FXcX    . C   Q.                                  ",
"                            *                   lXGXGXGXGXGXGXGXGXGXSXZXcX    L.      R ^ p.NX      |.                          ",
"                      .         X.0         ;.F.F GXGXCXZXCXGXGXGXGXSXZXCXw.7     mX<.u -X                                      ",
"                      ..l.        1X!.-.uXxXZXNXmXZXGXFXVXCXGXGXGXGXGXZXAX,XjX  c k   O.<                                       ",
"                      b pX    p ] *XzX  @Xh rXMXZXGXGXGXFXAXGXGXGXGXCXGXSXzXJ.yX    R                                           ",
"                              }         O o }.5._  .jXGXDXZXGXGXGXGXGXGXGXGXAX    :XO.                                          ",
"                                        L.H   sX. o ZX*XVXGXGXGXGXGXGXGXGXGXGX  dXnX                                            ",
"                      f               O ` <X  = . fXGXGXGXGXGXGXGXGXGXGXGXGX~.vXC fXB.  $.                                      ",
"                jX                  o.CX        + ZXGXGXGXGXGXGXGXGXZXGXGXxX  2.MXSXSXwXp                                       ",
"                          h.  a   A.      y iX:.| OXGXGXGXGXGXGXGXGXZXFXDX  * #.CXGXGXGX$X                                      ",
"                      { m   4.    w.        p.H o 2.GXGXGXGXGXGXGXGXSXFXuXt.;XH.VXGXGXGXT.                                      ",
"                    9 d.    V b.iXZXmX4X    5X'.E.l.ZXGXSXGXGXGXGXGXZXFXAXCXCXZXGXGXSXxX*                                       ",
"                              R                     mXZXNXZXGXGXGXGXZXFXGXGXCXFXGXGXp 6                                         ",
"                                                U.A ^ w 9XCXGXGXGXGXCXFXGXZXZXZXGXGXK.7                                         ",
"                              X         s       I ;     q BXXX#XbXNX. FXAXwXCXAXAXGXY.        FXR.                              ",
"                                            &     F       .       x   : NXr.xXVXGXGXF   o   n.GXiX                              ",
"                                        K O i.Y X 0X{.p         oXf U   hXNX].o D..     BX    [ {.-X                            ",
"                                    <.          &             :     kXcXfXFXY.D       i         GXZX                            ",
"                                                            I.. 5   a vX5XGXGXGXtX%X1           CXNX                            ",
"                                        +   Q               q.N.      ,X(.GXGXGXGXZ.                                            ",
"                              ~   S.          c.n o.( e.-             P 5XGXGXGXGXGXO                 3X                        ",
"                                  b.      &   @ #X/   O                 M GXGXGXGXGX  f                                         ",
"                              &.6X>                                       [ vXGXH zX                                            ",
"                          8                             y.    x.              CXpX5                                             ",
"                                                                              ^                                                 ",
"                      ! c..             y.                      0.G             P.u.                                            ",
"                              p.                                              GXGXGXnX                                          ",
"                          %X              *           G                     g.GXGXGXGX.             &X                          ",
"                                                                            8.GXGXGXGX*                                         ",
"                                3       p                                     GXGXGXFX                                          ",
"                                                                              B CX9X                                            ",
"                                          k.                                                                                    ",
"                                                                                                                                ",
"                                                                                                                                ",
"                                                                                                                                ",
"                                                                                                                                ",
"                                                                                                                                ",
"                                                                                                                                ",
"                                                                                                                                ",
"                                                                                                                                "
};
