/* XPM */
static char *h4apd_8z3xh[] = {
/* columns rows colors chars-per-pixel */
"64 64 97 2 ",
"   c #000000",
".  c #0C0101",
"X  c #140101",
"o  c #1B0101",
"O  c #1D0A0A",
"+  c #1B1517",
"@  c #240101",
"#  c #2B0101",
"$  c #2C0B0B",
"%  c #340202",
"&  c #3B0001",
"*  c #380807",
"=  c #350B0B",
"-  c #3C0A0B",
";  c #371A08",
":  c #330F10",
">  c #251113",
",  c #2C1315",
"<  c #2C191A",
"1  c #331313",
"2  c #3C1214",
"3  c #3B1A1B",
"4  c #2D1F20",
"5  c #302023",
"6  c #32272A",
"7  c #35282B",
"8  c #3A2A2E",
"9  c #372D30",
"0  c #393236",
"q  c #3D363B",
"w  c #430202",
"e  c #4B0202",
"r  c #420C05",
"t  c #4C0A05",
"y  c #4A0709",
"u  c #440A0A",
"i  c #4D0A0A",
"p  c #530202",
"a  c #580101",
"s  c #510E06",
"d  c #530B0B",
"f  c #4C130A",
"g  c #431D0E",
"h  c #53120A",
"j  c #551F0F",
"k  c #5F180D",
"l  c #4B0F10",
"z  c #560F10",
"x  c #411616",
"c  c #45171B",
"v  c #481719",
"b  c #431B1C",
"n  c #4D1B1A",
"m  c #511112",
"M  c #521817",
"N  c #53230E",
"B  c #4C2814",
"V  c #542010",
"C  c #562C16",
"Z  c #5C2C16",
"A  c #54311A",
"S  c #5C3419",
"D  c #602111",
"F  c #431F23",
"G  c #4A1C22",
"H  c #5A1E24",
"J  c #432324",
"K  c #4B2425",
"L  c #442428",
"P  c #4F262B",
"I  c #4E2A28",
"U  c #582724",
"Y  c #542926",
"T  c #59222A",
"R  c #542C2A",
"E  c #4E302E",
"W  c #422E33",
"Q  c #433134",
"!  c #453439",
"~  c #5A3332",
"^  c #5F3B3F",
"/  c #612F29",
"(  c #623530",
")  c #4F3B40",
"_  c #5A3D40",
"`  c #3E4047",
"'  c #4A4249",
"]  c #524046",
"[  c #565157",
"{  c #6C5157",
"}  c #61565D",
"|  c #6A555B",
" . c #745C63",
".. c #77666F",
"X. c #726A72",
"o. c #80757E",
"O. c #8C8994",
/* pixels */
"                                                                                                                                ",
"                                                                                                                                ",
"                                                                                                                                ",
"                                                                                                                                ",
"                                                                                                                                ",
"                                                                                                                                ",
"                                                                                                                                ",
"                                                                                                                                ",
"                                                                                                                                ",
"                                                                                                                                ",
"                                                                                                                                ",
"                                                                                                                                ",
"                                                                                                                                ",
"                                                                                                                                ",
"                                                                                                                                ",
"                                                                                                                                ",
"                                                                                                                                ",
"                                                                                                                                ",
"                                                                                                                                ",
"                                                                                                                                ",
"                                                                                                                                ",
"                                                                                                                                ",
"                                                                                                                                ",
"                                                                                                                                ",
"                                                                                                                                ",
"                                                                                                                                ",
"                                                                                                                                ",
"                                                                                                                                ",
"                                                                                                                                ",
"                                                                                                                                ",
"                                                                                                                                ",
"                                                                                                                                ",
"                                                                                                                                ",
"                                                                                                                                ",
"                                                                                                                                ",
"                                                                                                                                ",
"                                                                                                                                ",
"                                                                                                                                ",
"                                                                                                                                ",
"                                                                                                                                ",
"                                                                                                                                ",
"                                                                                                                                ",
"                                                                                                                                ",
"                                                                                                                                ",
"                                                                                                                                ",
"                                                                                                                                ",
"                                                                                                                                ",
"                                                                                                                                ",
"                                                                                                                                ",
"                                                                                                                                ",
"                                                                                                                                ",
"                                                                  . .                                                           ",
"                                                            . X @ & @                                                           ",
"                            # o                         X o @ & w e w % X .                                                     ",
"                      . . # x O O .         .           & & & & w e p e p #                                                     ",
"                    X w e w v 1 H n   . X # % @   . @ @ w w & w e p p p a %                                                     ",
"                    # a p e I < G T $ * u z d d = u w w w & & w e e e a p & .     .                                             ",
"                . # e p p e - : G H m l d d i d z d w & & & w e w w e a e e $ 7 + ! +                                           ",
"              # e p p p d w e w e y e w e e w w w e w w w w w w w w w p e y G > q 0                                             ",
"            % a a d d d y e w w & % w e e e e w - F L 1 = x * % & u % % u i P 1 ! ] = $ >                                       ",
"          . e y w w i d e s s t e w e w e w u x L W ' 4 ! o.{ x % J 2 & 2 c U ( Y ~ ( / R J O .                                 ",
"        o * h d y e t h V C S N N D k h j h w 2 7 1 8 0 } O.O..._ Q W 7 W 8 R ( Y K U / Y I x % # # X X . .                     ",
"  . X @ y d d y y e d h t f g ; g B Z A A Z f & - 1 3 8 9 [ X.|  ._ Q 0 ` ! b I I F Y E n i e e e p e w % w % # @ .             ",
", M m z s y w e e w y a a a a a e r r - r t t & w - J 7 , 3 J P ^ { ) 5 6 3 w 3 b x c l e e e e p e p a a a p p p w % # .       "
};
