/* XPM */
static char *toa28zv[] = {
/* columns rows colors chars-per-pixel */
"64 64 191 2 ",
"   c #0D0904",
".  c #130D0A",
"X  c #131000",
"o  c #1B1404",
"O  c #1B1807",
"+  c #141009",
"@  c #1B160B",
"#  c #1C190D",
"$  c #171610",
"%  c #1E1B12",
"&  c #211B0E",
"*  c #211D12",
"=  c #25210B",
"-  c #2F270E",
";  c #242115",
":  c #292213",
">  c #262319",
",  c #2A261A",
"<  c #2D2A1D",
"1  c #302C1E",
"2  c #353213",
"3  c #37341E",
"4  c #3D361D",
"5  c #2F2C20",
"6  c #312D21",
"7  c #373222",
"8  c #393423",
"9  c #3E3923",
"0  c #3A362C",
"q  c #3E392D",
"w  c #3E3C32",
"e  c #433825",
"r  c #4A372A",
"t  c #423D2F",
"y  c #423E32",
"u  c #47442F",
"i  c #484228",
"p  c #564127",
"a  c #5C4E2F",
"s  c #454135",
"d  c #494537",
"f  c #494837",
"g  c #45433B",
"h  c #49463A",
"j  c #4C493C",
"k  c #5C4E34",
"l  c #514C3E",
"z  c #5D5032",
"x  c #5E533A",
"c  c #655637",
"v  c #695B37",
"b  c #605439",
"n  c #665A3C",
"m  c #6B5C3D",
"M  c #72623C",
"N  c #4E4C43",
"B  c #524E42",
"V  c #555245",
"C  c #595446",
"Z  c #54534A",
"A  c #59564C",
"S  c #5E5B4D",
"D  c #565750",
"F  c #5C5B52",
"G  c #665840",
"H  c #6C5F45",
"J  c #6C5E49",
"K  c #615E50",
"L  c #6C6345",
"P  c #6F6844",
"I  c #6D664A",
"U  c #726544",
"Y  c #786742",
"T  c #726945",
"R  c #7A6C45",
"E  c #746C4D",
"W  c #7A6D4A",
"Q  c #7F7347",
"!  c #76704A",
"~  c #7C724E",
"^  c #636154",
"/  c #69685C",
"(  c #746753",
")  c #776C59",
"_  c #767050",
"`  c #7C7353",
"'  c #7D765A",
"]  c #7F785B",
"[  c #7F7B61",
"{  c #767668",
"}  c #817447",
"|  c #83754E",
" . c #85794E",
".. c #827552",
"X. c #857B54",
"o. c #897D55",
"O. c #857C5A",
"+. c #8A7F5A",
"@. c #857C6A",
"#. c #897F69",
"$. c #8B8155",
"%. c #8C835C",
"&. c #8F885A",
"*. c #918257",
"=. c #91865D",
"-. c #8D8563",
";. c #85806F",
":. c #8C846B",
">. c #8F886C",
",. c #918763",
"<. c #948A63",
"1. c #988C64",
"2. c #958B6B",
"3. c #998F6A",
"4. c #9B9066",
"5. c #9B926C",
"6. c #8C8574",
"7. c #8E8874",
"8. c #8B857A",
"9. c #8D8A79",
"0. c #908774",
"q. c #938C74",
"w. c #988E75",
"e. c #948D7B",
"r. c #979176",
"t. c #9C9373",
"y. c #9F9870",
"u. c #97917B",
"i. c #9B947B",
"p. c #9F997D",
"a. c #A3956F",
"s. c #A19673",
"d. c #A49A74",
"f. c #A19779",
"g. c #A39B7C",
"h. c #A89D7B",
"j. c #A8A17E",
"k. c #958F81",
"l. c #979181",
"z. c #9B9582",
"x. c #9F9A84",
"c. c #9C9788",
"v. c #9E9989",
"b. c #9F9E90",
"n. c #A39C84",
"m. c #A89F83",
"M. c #A39E8B",
"N. c #A89F8E",
"B. c #A39F90",
"V. c #A5A185",
"C. c #AAA284",
"Z. c #A6A18C",
"A. c #AAA48D",
"S. c #AEA98C",
"D. c #B0A982",
"F. c #B1AA8D",
"G. c #A6A391",
"H. c #AAA693",
"J. c #ADA995",
"K. c #AEAC9A",
"L. c #B0A797",
"P. c #B1AC95",
"I. c #B2AE9B",
"U. c #B9AF9E",
"Y. c #B6B195",
"T. c #B9B394",
"R. c #B5B19D",
"E. c #B9B39E",
"W. c #BBB89F",
"Q. c #B4AEA0",
"!. c #B6B3A2",
"~. c #BAB6A3",
"^. c #BCB9A5",
"/. c #B7B7A9",
"(. c #BAB7A8",
"). c #BDBBAA",
"_. c #BFBFB1",
"`. c #C0BAA6",
"'. c #C1BEAC",
"]. c #C1BEB1",
"[. c #C4C1AE",
"{. c #C9C5AF",
"}. c #C5C2B3",
"|. c #C9C5B4",
" X c #CBC8B7",
".X c #C6C5BA",
"XX c #C9C7B9",
"oX c #CBC9BB",
"OX c #CDCCC0",
"+X c #CFD0C4",
"@X c #D6D6CA",
/* pixels */
"h h l j y V y y 0 y B j j j d B V B s Z S ^ N N S f q 6 s s w Z ^ j 6 N F Z Z F N F N g N d l l C N d N N F N y D K F h 0 y y N ",
"C B l j j V N y y B B l B C j B V j f V l C f l A l q w y w w j ^ Z q Z / Z N C V Z D N B f V f F A j B h D N y ^ @.{ C j j N B ",
"B h j d t y j y 0 d B B j h d l f w s f l s t V N h w s d w 0 g Z q q f A q y q j j N 0 w 0 u s B d y h t w y t N K F t t w y y ",
"K.R.K.K.N.u.v.u.z.z.N.v.N.L.n.L.I.Z.x.G.K.G.H.b.c.c.z.i.H.z.i.7.v.Z.9.c.b.u.n.n.v.9.9.;.M.J.7.v.G.e.0.z.k.k.6.u.v.Q.Q.M.N.N.#.M.",
").^.R.~.Y.K.N.l.k.N.L.H.U.!.P.`.~.K.R.U.^.!.(.Q.H.K.L.A.^.A.n.i.M.M.z.K.H.z.R.A.N.i.z.c.I.I.z.!.!.n.z.N.Z.H.N.G.Q.~.~.I.`.H.i.J.",
"E.I.J.K.A.Z.M.c.e.B.L.H.H.H.L.~.~.Z.H.~.Q.Q.I.H.K.E.A.H.E.L.Z.Z.M.B.u.G.G.c.n.N.J.u.6.l.A.9.M.I.!.8.z.I.H.K.n.c.G.L.I.G.L.L.z.L.",
"}.~.K.^.R.N.n.k.e.G.I.L.I.I.I.(.U.H.~.).!.!.I.Q.)./.H.H.E.E.J.G.J.M.z.H.B.i.u.Z.J.M.6.z.z.8.!.I._.e.L.).^.I.I.J.B.c.I.).).!.v.U.",
"oXXX(.)._.R.v.z.x.I.~.!.)._.).}.~.K.{.[._.).^.'.}.(.K.K.^.~.K.R.~.J.I.Q.M.n.0.Z.I.L.e.M.n.B.[.[.(.Q.'.[.].].^.L.z.M.].}.}.^.K.).",
".X|.'.].].U.L.N.N.U.!._.).).].).~.].{.XXoX].!.~.).~.N.J././.!.K.~.(.).~.G.c.J.c.J.Y.k.9.Z._.|.oX_.I.}.}. XoX~.~.l.).oX]..XXX].].",
"[.].).'.(.Q.K.v.N.K.Q.!.Q.].].!.Q.(.!.[.oX).I.I.Q.I.K.K.K./.).E.~.}.).~.Q.K.U.G.J.!.@.6.K.'./.).^.I.(.).).'.~.I.U.|.'.).'..X/.(.",
"XX|.'.|.].Q.Q.~.L.L.~.~.~.].XX].).(.`.oXoX.X'.`.'.'.).'.!._..X[.'.XX|.).}.'.P.M.K./.c.G.XX.X}.].).L.'.[.[.|.`.I.].oX|.|.|.@X].].",
".X[.].].|.Q.L.`.U.U.!.I.'.^.|.'.'.'.U.|.|.|.^.E.'.'.U.(.!.!.]./._.^.|. X+X^.L.I.B.I.Q.K.|..X}.[.~.G.).[.|.{.'.U.].oX.X|.oX@X.X].",
"].^.^.^.`.U.L.L.N.H.P.U.(.U.).^.`..X~.'.).].).^.).Q.L.Q.Q././.I.^.'.).{.XXK.v.I.M.K._.).Q.).'.).L.J.E.^.`.`.T.L.'.'.^.'.].oXoX).",
"}.}.].|.{.'.'.`.U.U.`.'.).`.[.{.'.].].].[.|.'.[.|.U.!.^._.}.}.}.|.XX).|.}.G.Q.!.I.}.oX}.!._.'.'.N.J.`.'.[.`.W.`.}.}.'.}.'.]..X'.",
"}.}.}.}.].].'.].`.`.~.].{.'.'.{.'.I.'.'.}.oX].'.].`.).^.].}.[.'.^.[.[.XX[.~.~.J.I.[.XX].^.).).^.P.U.`.'.].`.U.`.}.]. X X|.XXQ.~.",
"].'.'.'.^.~.`.`.U.L.P._.I.~.W.`.Q.N.^.~.~.'.U.U.Q.Q.~.Q.(.(.'.`.~.^.^.~.~.^.P.A.H.).).).(./.!.^.N.P.~.~.`.~.S.~.'.`.'.].].].N.(.",
"{.{.].{.'.!.~.'.~.U.L.P.`.'.`.`.L.n.].`.'.|.].Y.`.'.).).!.!.'.`.[.[.).'.[.R.^.~.L..X'.[._.}.).).U.L.`.`.W.`.U.'.'.`.'.XX|.oXU.`.",
"|.].].].}.`.`.].`.`.U.U.'.{.'.W.L.H.].W.{.{.'.U.'..X.X'.!.~.'.'.).`.[.{.[.^.'.[._.XX}.[.'.[._.[.^.`.`.`.`.`.U.].].'.'.OX X].'.`.",
"'.'.'.^.'.~.U.~.~.I.I.L.`.`.W.U.H.H.~.U.`.`.U.Q.K.~.}./.U.^.!.^.~.K.^.^.W.^./.~.^.'.).)._.).~.).!.E.E.^.~.Y.L.).`.~.`.].].`.`.U.",
"'.'.^.).].'.`.~.U.I.!.).'.'.~.'.~.L.~.~.U.~.(.U.(.^.'.(.~.`.).U.E.~.).'.`.R.).).'.'.).^._.).).^.~.R.E.W.`.L.x.Q.`.`.'.].].].`.`.",
".X[.'.).].].].`.E.R.).'. X[.`.[.~.Q.'.`.~.`.}.{.^.{.[.'.^.[.}.[.'.].[.{.'.^.}.[.'.].[.)._.'.}.).`.E.W.'.`.U.M.U.XX].].].oX].'.{.",
"^.(.(.^.~.).`.I.x.K.I.R.^.W.P.R.H.L.`.~.`.'.OX].R.'.).W.^.)._.^.'._.'.^.!.~.(.^.(.^.(.!./.!./.~.Q.E.~.~.`.~.L.I.'.`.].].].'.`.`.",
"^.(.(.^.~.Q.(.~.I.~.I.K.~.W.W.W.N.x.I.!.).].].!.W./.^.^./.^.^./.U.~.~.R.R.W.~.E.I.~.~.!.Y.!.I.Y.I.U.U.R.I.~.P.I.`.~.`.`.'.`.U.`.",
"'.[._._.).~.'.].(.(.~.Y.'.[.'.'.N.L.'.'.].].].).{._.).}.}.).[._.^.[.^.^.'.|._.).~.).^.^.^./.!.W.R.W.`.W.~.'.R.U.|.].'.].].].`.'.",
"(././.~./.!.^.(.I.!.R.J.R.W.W.W.I.Q.).^._.'.(.!.).^.)._.^.W.^.).^.^.R.E.(._.'.^.I./.~.~./.K.J.R.R.R.W.E.~.~.P.~.'.'.).^.)._.~.~.",
"!.R.K.K.!.~.!.~.G.G.K.G.R.P.J.R.H.H.!.!.Y././.^.!.K.!.~.R.R.!.K.I.!.R.I.~././.I.I.K.K.J.J.G.K.J.I.P.I.Y.U.K.L.Q.~.!.^.Q.!.Q.R.K.",
").).^./.(.).).[.I.K.~.I.~.^.R.).Q.H.!.!.R.'.'.(.^.).).'.'.'.'./.^.(.(./._.W._.^.~.~.~.I.W.I.I.K.Y.E.`.U.W.~.U.^.'.'.).'.'.~.^.W.",
"~./.E.~.^./.^.(.I.K.U.K.U.E.R.W.K.I.I.K.K.(.^./.~.[.^.).).^.).!.~.!.~./.'./.^.W.R.!.!.I.R.K.K.I.I.H.W.U.`.~.Q.~.'.).^.^.).^.^.W.",
"U.I.K.K.K.K.I.R.K.G.H.B.H.H.K.P.N.z.H.H.I.!.!.K.I.!.U.Y.!.I.R.K.J.H.H.!.!.!.I.K.S.J.I.I.K.K.K.K.I.P.I.L.I.Q.I.Q.!.I.!.!.~.Q.U.I.",
"~.~./.!./.K./.(.!.L.^.H.!.^.E.W.I.c.I.I.).).(.I.E.'.^.~.^.~.(.W.~.!././.)._.(.~.K.^.)./.E.~.Y.~.E.R.R.W.E.^.^.).).^.!.).'.).).).",
"!.!.!./.!.K.!.(.~.K.!.H.I.K.P.Y.J.B.L.K./.~.~.K.U._.~.W.!.R.W.W.R.R./.^.).).~.I.K.R.!.R.I.R.I.E.U.H.A.R.E.~.!.!.^.~.!.(./.(.~.~.",
"K.K.H.H.J.b.K.K.J.H.G.G.B.B.n.A.M.n.G.c.G.!.K.H.J.J.L.K.J.J.J.J.J.G.!.W.!.I.K.G.G.G.K.G.G.H.J.J.H.J.x.H.K.I.H.H.K.I.I.I.Q.I.L.H.",
"/.!.K.!.R.K.R./.R.R.R.I.K.Y.Z.J.b.K.I.G.K.^./.I./.Y.!.W.!.T.W.K.R././._.).J.R.Y.P.R.E.J.Y.R.R.I.K.S.E.R.Y.R.K.K.!.~.!.(.~.I.!.U.",
"~.~.K.K.I.K.E.W.R.U.J.K.J.K.J.Z.G.!.!.K.R.^.!.J.W.R././././.!.K.R./._./.).R.R.K.K.K.R.J.R.Y.R.R.P.P.P.~.I.K.K.Y.~.^.^.(.~.!.~.E.",
"J.J.K.H.G.G.H.J.L.I.Z.H.J.H.Z.J.J.H.K.G.J.I.G.Z.H.J.!.K.Y.R.J.G.Z.J.I.K.R.K.G.Z.Z.K.G.G.J.H.H.J.A.A.J.J.K.J.J.H.K.K.K.K.K.K.K.J.",
"R.K.I.I.K.H.K.R.R.U.I.H.K.J.K.I.J.Z.R.K.!.!.J.G././.!./.Y.K.R.K.K.R.K./.!.I.S.Z.c.K.Q.J.K.J.H.K.I.P.P.K.K.!.R.R.I.R.K.!.E.R.I.K.",
"R.E.~.~.!.J.!.W.~.W.R.Z.K.P.Y.Y.I.G.~.W./.W.K.R.^.^.^.).W.W./.R.Y.)./.^././.K.A.p.J.K.Y.P.R.J.K.I.Y.T.E.U.~.E.R.!.~.~.!.~.U.E.E.",
"K.K.I.I.K.H.K.K.I.K.K.J.G.M.i.G.Z.x.R.I.K.K.Z.J.R.!.R.!.!.J.R.R.G./.K.K.K.!.K.V.r.H.Z.H.J.J.V.A.Z.C.I.I.K.Y.K.J.K.Y.K.R.K.K.J.J.",
"K.R.K.R.R.I.I.R.K.Y.P.R.!.I.V.G.G.M.R./.R.K.G.K.!.!.K.^./.T./.R.Y.R.!.K.J.K.J.G.Z.J.G.S.K.K.K.K.I.S.R.R.I.I.I.K.R.R.Y.!.K.J.J.H.",
"~.^.E./.!.R.R.~.~.W.E.E.W.^.I.K.J.G.K.!.W.W.K.Y./.!.W.).W.W./.!.^./._.W.!.K.R.H.G.Y.Y.K.E.R.R.Y.R.P.~.~.~.E.!.R.~.^.~./.~.E.E.U.",
"K.Y.P.Y.R.G.Z.K.K.K.Y.R.K.K.x.Z.S.n.H.I.I.R.K.K.R.K.K.R.R.K.R.W.W.!.!.!.K.G.S.G.V.J.G.G.H.A.K.A.J.A.J.Y.K.P.I.K.K.R.R.R.I.K.J.C.",
"K.K.K.K.J.G.J.R.R.K.J.J.J.J.Z.V.Z.c.v.J.K.H.G.G.K.J.Y.K.J.J.J.W.K.K.G.J.J.G.G.Z.V.Z.V.G.Z.n.Z.J.n.x.n.Z.V.G.K.K.H.K.Z.J.K.K.Z.j.",
"^.^.~.~.^.T.E.W./.W.W.K.!.!.!.Y.K.J.K.(.!.!.R.J.!.W./.W.R.R.W././.!.K.!.R.K.Y.R.J.J.S.S.R.L.n.V.u.i.h.L.S.K.~.E.E./.Y.~.E.~.Y.I.",
"~.W.W.R.U.Y.Y.T.Y.!.!.J.K.J.K.J.K.J.I.K.K.J.J.K.K.Y.R.R.K.Y.!./.!.!.K.R.R.R.Y.R.S.J.J.K.H.A.A.Z.x.f.S.J.S.J.R.R.!.(.U.R.Y.E.Y.H.",
"K.K.J.S.D.D.P.H.G.J.J.J.H.G.Z.H.K.K.K.K.H.G.b.A.J.J.J.K.J.S.K.K.S.G.G.J.J.J.G.G.Z.G.Z.Z.V.x.p.V.x.n.m.N.H.K.P.J.I.~.~.P.J.J.I.Z.",
"~./.Y.R.Y.Y.W.R.Y.!.W.!.!.!.J././.^./.!.K.!.K.R.!.Y.K./.W.R./.!.!./.R.W.W.J./.K.S.Y.Y.J.S.S.S.S.A.S.I.F.P.~.Y.R.[._.).^./.~.~.~.",
"^.E.R.U.T.T.E.E.Y.R.!.Y.K.R.J.!./.R.K.G.J.R.Y.J.K.K.K.!./.!.!.!.!.R.K.K.Y.R.R.K.J.J.A.G.J.Z.S.K.L.N.m.U.^.W.S.R.|._.^.).^.W.Y.R.",
"J.J.J.Z.A.S.S.A.S.Z.Z.b.V.G.G.G.G.x.z.x.G.Z.x.b.V.b.G.S.J.J.S.J.K.G.b.b.G.J.G.p.x.p.p.u.x.] :.M.g.n.n.A.P.K.G.J.|.^.I.~.Y.Y.H.V.",
"E.R.K.Z.L.S.Y.Y.F.P.I.G.K.J.K.Y.J.z.v.B.K.K.Z.M.J.H.P.R.R.K.R.!.K.V.Z.J.K.E.K.V.n.C.w.Z.i.i.f.C.H.H.E.F.A.I.C.K.'.P.H.'.).^.R.j.",
"~.R.A.Z.R.F.Y.Y.F.W.E.S.K.J.K.K.G.u.z.G.P.I.A.A.S.K.W.P.Y.!.W.!.G.7.i.K.U.R.!.H.M.H.F.P.A.A.C.h.F.L.U.E.P.P.A.S.A.A.A.^.^.E.I.S.",
"P.c.k.e.z.A.C.A.D.S.C.C.b.V.V.M.e.7.q.x.V.G.x.V.V.G.J.J.G.J.J.H.u.@.;.r.Z.K.G.G.n.Z.n.M.A.C.f.1.g.A.G.A.A.A.n.Z.Z.n.i.J.K.A.n.g.",
"A.@.6.q.w.P.C.C.h.F.A.I.Z.Z.V.z.c.M.Z.i.p.N.n.A.n.Z.H.Y.J.R.Y.K.k.[ 9.p.J.G.J.Z.n.H.A.f.A.m.m.d.d.y.S.K.H.A.M.n.A.g.m.A.J.Z.V.g.",
"S.( @.e.#.m.S.F.D.T.R.Y.G.C.x.V.j.t.V.i.:.V.V.h.d.g.V.F.T.R.W.R.G.q.x.L.U.J.J.Z.A.A.A.Z.S.A.P.C.a.3.m.I.H.F.J.A.A.K.P.P.J.P.C.C.",
"u.r ) #.( ..f.g.y.S.F.Z.V.n.7.:.i.i.r.r.0.n.p.n.x.p.p.S.G.S.Z.G.Z.#.0.M.A.n.z.:.r.i.n.n.A.S.A.h.f.2.2.g.p.g.i.g.g.V.S.V.Z.A.p.y.",
"t.) 7.7.G ( t.f.V.V.A.x.i.>.>.:.:.r.x.i.r.n.V.r.t.p.Z.Z.V.p.V.S.A.g.2.r.p.V.r.>.-.-.i.p.p.i.2.g.t.5.,.w.r.2.%.i.p.1.r.V.V.r.5.p.",
"C.w.n.n.H J f.h.S.S.W.b.%.r.u.p.p.p.V.x.r.I.A.i.S.j.S.Y.F.S.F.F.C.F.V.j.C.h.f.i.3.2.g.C.S.2.<.D.4.D.d.s.C.a.5.5.5.5.h.T.S.d.h.d.",
"2...+.s...p X.=.y.V.V.Z.' -.r.i.u.>.-.:.` w.w.i.V.r.r.y.g.y.<.1.i.h.t.V.d.r.r.X.X.3.,.f.C.<.-.y.&.4.1.2.3.5.3.%.1.2.f.F.t.=.5.t.",
"W U ..-.....3.=.$.&.5.i.I ! %.-.O.` ! ~ U U U ,.=.%.=.&.,.=.`  .$.$.<.t.<.%.Q b P o. .o.,.=.&.=.=. .%.-.-.-.+.%.+.%.-.%.o.| W R ",
"Y M R =.,.4.d.d.<.4.y.5.U c ` =.o.%.o.o.| ..X.3.1.,.&.5.3.<.=.%.$.&.<.<.&. .Q a z M Q | } | *.=.<.$.4.1.2.&.~ $.| ~ %.=.=. .U c ",
"+.M M o.<.i.i.y.5.5.5.<.M n ~ %.X.R | =.o.Y +.3.<.&.$.1.<.&.%.X.&.-.<.<.-.$...P v T ~ | $.o.$.$.$.X.-.-.=.-.-.X.` E -.-.~ W ~ ~ ",
"..U k J ] ' ] -.-.%.] L z e L E L x L _ ! m L ` ! U P P P U P T ! ! _ _ _ _ _ P x L ` ` _ L I I L _ _ ] ] ] ] ' ' ] ] :.E E G z ",
"< < > : ; X & - 3 4 = o $ % ; % % * ; & < , > & : > * % $ # @ * % # O o o $ # * ; $ o % # *   . % ; ; ; * # & > = ; 3 2 < # + > ",
"6 , , < < < 7 7 9 i 1 > > , < < < < 1 1 1 5 < 6 5 < 1 5 5 1 < < < < 1 < 5 5 5 1 < < 1 1 5 5 5 5 5 < > , < < < , > 8 l u 7 > , , ",
"< > , , , < 1 < 3 9 < , > > , < 1 1 1 1 1 1 , < < , < < < < , < , < 1 1 1 1 1 1 1 < 1 1 5 1 1 < < > > , , < > > > < q h y * > > "
};
