/* XPM */
static char *brick_wall_14[] = {
/* columns rows colors chars-per-pixel */
"64 64 156 2 ",
"   c #7F5D42",
".  c #7C5F4A",
"X  c #755F51",
"o  c #7F6147",
"O  c #7E624D",
"+  c #7F6A4E",
"@  c #7C6651",
"#  c #7D6A54",
"$  c #7C6659",
"%  c #7E6A5B",
"&  c #7E7065",
"*  c #87562D",
"=  c #8B552D",
"-  c #8D582D",
";  c #90572A",
":  c #865534",
">  c #8B5633",
",  c #845936",
"<  c #8D5A33",
"1  c #825D3C",
"2  c #8D5C3C",
"3  c #925B34",
"4  c #915D3B",
"5  c #985E39",
"6  c #87623D",
"7  c #8B613D",
"8  c #976135",
"9  c #94623D",
"0  c #9A653D",
"q  c #96693F",
"w  c #9E693F",
"e  c #A06A3E",
"r  c #835E43",
"t  c #8C5C42",
"y  c #885F49",
"u  c #905D40",
"i  c #856244",
"p  c #8C6343",
"a  c #8D6946",
"s  c #83644D",
"d  c #8A654B",
"f  c #856A4C",
"g  c #8D6A4D",
"h  c #946543",
"j  c #9A6644",
"k  c #956A46",
"l  c #9C6B44",
"z  c #94664B",
"x  c #9D664B",
"c  c #936C4C",
"v  c #9B6D4B",
"b  c #8F714E",
"n  c #95724E",
"m  c #9C714D",
"M  c #846652",
"N  c #8A6651",
"B  c #846B54",
"V  c #8C6C53",
"C  c #846D5B",
"Z  c #8A6E5B",
"A  c #926752",
"S  c #9A6650",
"D  c #926D53",
"F  c #9C6E52",
"G  c #926D5A",
"H  c #9B6F5A",
"J  c #857155",
"K  c #8C7255",
"L  c #85725B",
"P  c #8C735C",
"I  c #807A58",
"U  c #8C7A5D",
"Y  c #947254",
"T  c #9B7354",
"R  c #947853",
"E  c #9C7A56",
"W  c #94745B",
"Q  c #9B755B",
"!  c #947A5D",
"~  c #9C7A5D",
"^  c #A16D45",
"/  c #A26D4B",
"(  c #A96E4D",
")  c #A57146",
"_  c #AB7547",
"`  c #A4724C",
"'  c #AA764D",
"]  c #A77A4E",
"[  c #AC794E",
"{  c #B0764E",
"}  c #B17A4E",
"|  c #A26E53",
" . c #A37553",
".. c #AA7653",
"X. c #A57A55",
"o. c #AC7A54",
"O. c #A3755B",
"+. c #AA755A",
"@. c #A37B5C",
"#. c #AB7C5B",
"$. c #B17752",
"%. c #B27D54",
"&. c #B17D5C",
"*. c #B87E59",
"=. c #846F61",
"-. c #8A6E61",
";. c #867362",
":. c #8B7463",
">. c #8D7A64",
",. c #867669",
"<. c #8C7668",
"1. c #8E7A6A",
"2. c #927662",
"3. c #997561",
"4. c #937B64",
"5. c #9C7B63",
"6. c #927669",
"7. c #937C6B",
"8. c #9B7D69",
"9. c #8F7F72",
"0. c #957F71",
"q. c #987C70",
"w. c #A27662",
"e. c #A37C62",
"r. c #AC7D63",
"t. c #A37C69",
"y. c #A97F69",
"u. c #B37E63",
"i. c #97805E",
"p. c #9F825F",
"a. c #A18057",
"s. c #A1825C",
"d. c #AC815D",
"f. c #B38156",
"g. c #B4825C",
"h. c #B9845D",
"j. c #8E8161",
"k. c #8F856C",
"l. c #948165",
"z. c #9D8065",
"x. c #95826A",
"c. c #9C826A",
"v. c #97886B",
"b. c #958172",
"n. c #9A8472",
"m. c #9C8B77",
"M. c #9F877B",
"N. c #A38263",
"B. c #AC8262",
"V. c #A2826A",
"C. c #AC8369",
"Z. c #B48263",
"A. c #B98364",
"S. c #BF8B63",
"D. c #B38469",
"F. c #BB8569",
/* pixels */
"3.W Q <.v.C.~ 5.z.! T 2.:.T ! ~ e.! X.>.B 7 d g S g n <.1.s.e.e.O.e.@.1.=.F D c n D T L % c D c N b g M P T Y ~ T @.#.n.m.! Q Y ",
"O.o.l d ~ h.o.#.%.%.[ Y n ^ ^ `  .' ] Y i < 8 8 l ^ ^ a Q %.%.Z.Z.A.A.~ W ' ] | ^ / ` v p / / j j w 0 i D ) [ ] | o.( Y C.d.&.r.",
"1.W 2.1.0.8.! 7.;.Y K Z @ V Y C C Y P L P f d 4.P d d P 6.W G 1.1.Y K :.L D n >.7.Y W ! P Z N C Z d N C ;.A c :.x.b R l.x.! ~ 1.",
"! #.B.y.V.d.&.~ V m v v v v ` P V  .T v o.d. .c.D j m | m  . .W 5.#.r.B.#.B.g.5.5.o.@. .T F h i Z 4 9 < < < 4 s Q | #.X.X.@.o.V.",
"E &.#.e.D.B.+.~ P  .|  . .v m P Z k v v ` X...Z d / v v m T ` 3.5.&.C.C.C.B.o.5.K v | n v F k f M 2 4 < 2 < 8 M W h m v  . .| W ",
">.~ 4.b.7.V s C =.g K >.>.~ 5.7.6.Y P :.:.W ~ 2.=.D V P P V V -.C g K P J V b L P W P P >.6.3.j.7.D 3.7.q.G Y 2.;.g R 4.! b n P ",
" .[ ' T i < 9 h j w l D ! g.%.Z.&.A.g.5.5.%.$.' ` w 0 p r < 0 h h v / D D ` .. .] %.o.T E g.Z.g.h.h.h.E @.} f.] v / j p #.%.$...",
"T Y T >.>.d d H V g S C Z @.Q ~ 8.5.E :.P T Q Y F D k 1.1.p d D F D D :.=.c Y  .T ~ ! L ;.5.5.@.5.5.@.2.7.T D b F Y n 2.x.n T v ",
"b.O.E w.~ n S C ;.g W T Y ! T 1.C k g D Y Q Q <.l.w.t.@.N.8.z.k.7.@.w.! D D k Z C n D c c a p # 7. .T T T T @.P 1.w.~ ~ @.t.e.:.",
"Q %.[ / j ^ j p g ` ]  .o.f.[ T a ^ ( / ^ ( ` b ~ u.Z.&.B.Z.&.R ~ %.} ) ^ ^ j d D l j h j j j g O.$.o.X.#.&.*.O.E  .[ %.f.g.d.X.",
"C D D Z Z A J ;.1.Z Y L C D Y B . f D -.C D V L K P W >.>.T K V =.V D G P D 2.7.:.V g :.1.D B :.W D D Z >.c D K U P 3.7.8.5.4.U ",
"+.#.` W ! #.X.@.E T ` V V ` n k l m | P Z v T X. .@.#.Q D j S k m  .| W W  .+.#.d.B.g.C.V.]  . .m m 9 s N 2 p h l v S K P T  .` ",
"| &...K ! &.@.X.s.T | W W  . . .m m v P Z v Q @.m @.o.Y b x v ) v  .` Z W ..#.o.#.s.%.4.W ` m m m m j M V 2 p h h k z f V S T X.",
"C D D Z :.Q U 1.<.O i =.% d V >.j.P D <.:.D J >.i.~ ~ U K d y o $ M d s O d B C q.c.~ 1.7.Q W :.>.W Y >.x.K ! 4.L 5.5.6.W G W P ",
"Y ` / `  .' ] E r 4 9 7 l ^ j D N.f.&.#.X. .` V @.#.&.` ` | v a r 3 3 < * 3 3 y N.h.h.o.%.[ ) Y w.g.A.C.D.g.g.e.~ h.o.%.%...o.R ",
"L g a D D T O.;.,.d d g g D D C ;.Q ~ ! ~ ! D & P F H F g A g L B p d d i r p B 1.@.~ @.Q D Y 7.b.s.N.N.~ ~ @.;.>.y.E Q @.! H @ ",
"Q ~ w.>.J d D g H   d $ <.@.5.t.@.5.t.>.l.C.E T T T Y x.n.N.N.E e.O.v ;.;.b Y ! n ! @.x.x.w.5.G Y 4.Q & <.N.~ Q ~ ~ G L ;.3.~ T ",
"Z.u.A.Q k S v h j j l d ~ g.&.A.u.u.u.@.e.u.&.o.#.*.+.H t.Z.&.&...{ ' D D ) [ ] X.#.&.@.5.r.u.#.#.X.l g V.h.[ g.] &.&.n E &.A.h.",
"7.W W K J A V L C D K # L W Q :.>.3.W K K 5.5.>.2.W K P >.! ! :.W D P ;.:.Z Y 7.! D P P P P D P <.V P <.:.W D P 4.G P L 7.2.8.4.",
"~ Z.@.X.X.@.O.! 5...o. .m o.o.V g S v v v T | T 5.r.@.r.r.r.Z.4.8.o.d.X.X.#.X.P s 2 u < < 2 2 . W [ X.m m #.' D ! #.B.#.d.d.u.i.",
"! u.d.#.#.X.O.V W ' ..` X.o...W D S T m m  .F D G r.#.C.C.d.r.4.8.o.d.o.X.@. .W s 2 t * * 2 u f E .. .@...@.] 5.p.B.B.d.d.@.r.! ",
"L D K V K ! K U 6.D W 4.L N g Z J Y R K U V.5.4.P D W >.U V D P P Q :.1.<.2.Y 4.! W W P ! W Y ! :.k V 4.:.f g C >.N C C U C W Z ",
"..o.o.F T g.Z.d.h.%.h.N.a ) ' / l / | T @.F.Z.&.&.] ..Y g ` %.#.) %.o.~ Q [ %.[ &.Z.F.e.@.Z.o.' / ( 8 i c / l k 0 0 v p c / ' ] ",
"T Q Q U 4.w.s.p.N.! ~ <.C E H ~ n b S J U e.~ T n m g P >.D b T ! W m <.>.@.5.~ p.5.#.W K T D b a n k ;.=.d b A Y d N # L G Y T ",
";.T @.! e.! X.q.C S A a n Q Q ;.>.~ 2.W ! W H ;.b.s.e.@.w.! T L M c g n m 3.~ <.;.D b Y T E O.7.j.~ p.N.@.H e.4.Z n k P W a n M ",
"a l ) / ....[ E n / / ^ ^ ` | n N.u.r.#.+.O.| g N.f.%.#.o.%.[ n k ( ( j ^ ` ` D D ` [  . .o.$.Q E Z.Z.Z.Z.A.F.#.D ] ) ` ` ^ ` Y ",
">.V D 6.:.D f C P Z G 2.4.W P 7.l.P W P U W K U x.5.W 7.7.G Z L @ M A V 5.3.6.>.2.K D L L Y V P v.5.8.>.U W K K P ~ ~ :.Z K Y C ",
"o.X.[ V.P ^ v l v O. .W ! &.C.d.d.r.&.5.5.&.O.X.v v j P W l v a 9 k k f c.Z.D.o.+.X.` P 5.d.X.! Q H H f f F v k l m T P Z m `  .",
"m | ` 5.J j l v ` O.| D ! &.C.d.d.&.&.Q Q +.| m k v l W Z j v k v S v f p.#.r...O.| ` W ! d.#.e.@.T O.P K  . .X.` l T P P m ` | ",
"P b S 6.Z g K J P B s B J M B J U W Q U U Y W U P P D <.<.D K P C M N O B N M B P b Y P L Y K 8.7.P Z L L P K i.7.W W 2.2.! 5.1.",
"E [ } { ..%.%.T D / l q q l h i @.Z.F.Z.Z.F.Z.N.D ) ) m m ) ) Q i 4 5 < = 3 3 6 D v ] X. .%.&.Q w.A.u.#.@.+.| g C.g.$.o.o.( ] ~ ",
"2.T E Y T T m Z # D D g a N g # ;.e.5.N.@.W w.>.<.E Y Q F g n =.=.i f p 1 i t s <.c n Q Y E  .C >.e.! ! ! W G L >.5.Q 5.4.T Q Z ",
"! 3.V.>.C F D k n D n % # g A a d f p B L m Y W T E ~ 1.9.~ W W 8.G W <.l.V.! w.~ E T :.:.T Q ~ ! ! ` P @ i i N g g c ;.;.e.~ ~ ",
"g.F.u.Q Y ` ..) l )  .a g / ` j l ^ j d D ' (  .o.%.[ n ~ h.g.#.@. .l d ~ h.f.&.#.%.' Y D l / / _ ' %.R i 8 0 5 j e ^ D Q %.f.d.",
">.5.W 4.l.D K ! l.Q 3.P Z V N @ B i N C Z N N Z :.W W 7.x.! W 7.1.W P 1.0.4.W 7.-.H P # # V W :.P b P :.=.V A 2.P g N C :.2.Q b.",
"3.#.e.d.d.e.&.z.5. .@.T m F p   . 4 4 < < 7 4 s V ` X.X.X.T ..V.~ #.C.C.e.d.g.~ K m m v l m m W ! ` E  .X.d.o.8.D ^ v v S m ..G ",
"5.#.C.B.d.C.#.~ D v m v m T j i s 4 4 > > 2 4 s Z j l m X.X.) W E &.#.e.C.B.#.e.! m m  .m v / ! P h v n l  .` G d j m | m  .' G ",
"P A ! 4.P W V J U W W P P 6.G :.:.G G 6.:.W D -.=.D K >.4.K D >.:.! W 1.:.M d C -.A V :.>.2.~ q.q.W 3.1.<.! Q >.Z D V C C M A =.",
"h x v g D | .. .` &.#.T E A.h.d.h.h.h.e.~ *.&.] T ^ 0 p  .} }  .X.[ ] Q r > 0 h j w w Q N.%.f.A.g.Z.h.~ ~ *.' ..^ ) w p i < 9 h ",
"k F c :.>.g Y E T ~ ~ L ;.O.5.@.4.Q T 2.P T D f k D T >.>.n v  .Y R T 4.:.y A G K D v ;.<.E ~ w.V.3.@.;.L E Q D D g g <.,.i a b ",
"4.@.e.Q Y Y v J =.g g g g d p X P  .T T T T m B :.@.~ t.@.~ s.7.x.O.@.~ D Y g C <.b Q ! Q Q @.n.2.S g g D Q ~ P j.t.~ z.s.e.y.1.",
"~ ' { ` ^ j 0 b F ` ^ l q j 0 c O.$.o... .*.%.H Y o.[ &.u.f.f.~ Q $.{ ` ^ e ^ d A ` ..` X.o.) ! k ^ / ) ^ ....b Q r.B.Z.B.Z.F.@.",
"L Y W :.P Y W 7.4.V f L >.K V =.P D g B P g b V L V D 6.q.~ ! <.=.W c P P g Z ;.7.V Y =.C Y W L + M G P Z G P P V ! W 4.P V A f ",
"m v ` W 2...X.d.d.B.h.V.z.) X. .m m q s s 4 2 p k k v K V | m  .| #.` 3.V.d.X.X.E T m V V ^ T m l T | K V v Q ` ` X.#.K D v v v ",
"` | / G W ..#. .@.&.X.! V ` F T F F h M M 9 p k k k l N B l m X. .X...W c.Z.X.#.e. .` V V  . . .m T m K K v Q X.`  .+.n b v v / ",
"# M d s O D V C n.8.W 7.1.5.W B P K Y >.1.Y W 4.>.P W 6.<.D W >.C V D P :.Q P b.1.@ f C % g K 7.i.P G >.<.Y :.>.l.~ 5.U Z g i g ",
"i 3 3 = = 3 3 r r.h.S.o.d.[ ' T w.g.A.Z.D.A.A.y.z.h.*.&.&.$.] Y D ` ' / ` } o.~ r < < 7 j w 0 D p.g.Z. . . .T f @.&.&.| v / x p ",
"M 7 d N d i 7 Z 0.E ~ E n D Y 1.1.@.V.V.~ ~ ! ;.:. .Q ~ ~ Y T C C c a W Q Y ~ >.9.d D Y Y D c :.>.w.z.~ ~ 4.Q L :.H n D D D D Z ",
"i i p C >.H E ~ ~ ! @.U >.Q 6.~ W W W & 9.V.Q Q ~ Q Y % =.E 5.~ ~ E @.x.P g b D W d d =.m.w.5.z.p.5.e.x.n.V.t.! @.H T 2.L p i d ",
"- ; < i Y v `  . .&.r.Q Q u.u.#.@.] ) D @.h.%.d.] $.%.Y W %.h.h.Z.g.A.w.D / l c h ^ j g @.&.*.Z.h.Z.g.@.N.g.&.[ &.[ [ b 1 < 5 : ",
"s d V % ;.W ~ 2.K Y V J f P A Z ;.W P ;.P Z D P 1.Y P P >.2.5.1.7.Q Y P B D V j.:.D G :.7.! Q <.7.3.4.L U 8.t.q.1.e.2.=.C M N C ",
"z.g.d.o.&.X.X.W f 4 2 < * 2 , o Y $. .m m X.[ D W o.B.e.B.#.g.5.5.u.X.X.@.X.#.5.V.o.#.' ..o.' Z D v T l m  . .W 5.d.e.r.C.C.g.4.",
"5.&.d.o.#.X. .P o 2 2 - < 2 2 o Q [  . . .#.o.D 5.&.B.B.B.@.&.! ! u.#.@.#.X.| P 5.` ` ' ` o.] W V l T l m m v G ~ o.@.C.C.C.o.! ",
"s p N % <.W Q 2.K D 3.J P Y Y K Z c D :.P M g C ;.g M C ;.M D C P Y Y P ! ! K >.<.Y W n.W K D :.Z V W U l.5.5.5.<.W G 1.<.s r C ",
"- ; 3 r Y ..{ [ d.F.F.@.~ g.&. .^ ^ 0 a D ^ l k q 8 l d D ^ ' X. ...&.T Q g.h.D.g.h.%.@.c ) ) | / / ` n a.h.h.%.o.' '  .p - 3 < ",
"r 1 t O P O.@.t.5.5.O.>.K m D g a D n % & D d D F f g =.;.Y Y T Y T T ;.:.E s.5.z.~ O.1.;.T ! ~ c H T M P e.e.Y H F m >.B 2 p y ",
"B S A m v 5.~ >.>.D n ~ Q E O.7.j.~ z.p.i.~ e.8.B D D Y Y k Y B P n ! Q w.Q @.1.Z A A k n H H >.U 3.5.Q ! W R % n.C.t.~ 5.~ T ;.",
"c / / ^ / ( ` n D l  .O. .[ o.O.E Z.A.Z.g.A.A.@.Y ) _ ` ^ )  .Y A ^ ( / ' [ { ! g / / / / ' ` D N.u.u.@.O.+.T f @.f.&.#.&.%...T ",
"@ M V C 4.G 2.>.5.D Y L ;.b D P v.x.8.>.U W K K 1.W W 8.W D K =.C K D :.Z g N L P G D P ;.3.5.8.l.W G P U W W P 8.4.! 1.1.G K B ",
"h p l f N.Z.D.d.r. . .W l.r.X.E | Q H J V F m l a l m ~ >.m  .X.T o.o.8.Z l l m v O.` ! Q #.r.s.u.C.r.@.~ r.@.O.v v l W W v k v ",
"v S l f t.&.#.X.+.T m W 5.B.X.@.e.Q H P U | T X.m | n W W F | T v  . .3.B j l l m |  .W ! &.D.d.r.u.r.5.! +.O.T v v l P W l v n ",
"J s d O V d M J W Y Y :.L W Y 4.>.P V P U K K i.0.! D 4.8.W ! 7.:.W c Z Z D V C P Z N M # N B L U ! Q ! P G W ~ U W K <.;.V V Z ",
"6 < 5 - = 3 3 6 g / X.#. .*.&.@.N.Z.Z.#.X.@.H f e.Z.*.$.%.[ ] W B.f.%._ { %.%.Q g ^ l w w v k i E Z.F.D.Z.Z.&.d.T ) ` ` | ^ ) T ",
"P t d 7 : y t s :.g n F W n T C U w.! K Y W G L 2.~ Q ~ W T H ;.W v Y D Q F n B % D A a a N a @ U ! 5.p.@.~ Q U <.m Y Y n D T L "
};
