/* XPM */
static char *_gk9jf_copy[] = {
/* columns rows colors chars-per-pixel */
"64 64 256 2 ",
"   c #040108",
".  c #191413",
"X  c #271C16",
"o  c #22211C",
"O  c #081623",
"+  c #0A1533",
"@  c #261C22",
"#  c #182335",
"$  c #11262E",
"%  c #2A2627",
"&  c #39332C",
"*  c #242C3A",
"=  c #2B333B",
"-  c #3A3736",
";  c #332B29",
":  c #423B36",
">  c #4E2E2D",
",  c #6B3139",
"<  c #561821",
"1  c #4C4339",
"2  c #554A3C",
"3  c #05194D",
"4  c #152747",
"5  c #0C275A",
"6  c #152859",
"7  c #0F2242",
"8  c #232C46",
"9  c #283346",
"0  c #363A44",
"q  c #293957",
"w  c #343D59",
"e  c #0A2969",
"r  c #162C66",
"t  c #18366B",
"y  c #0A2D72",
"u  c #072D7A",
"i  c #193375",
"p  c #103173",
"a  c #273B67",
"s  c #283C71",
"d  c #001865",
"f  c #443C44",
"g  c #36455A",
"h  c #324255",
"j  c #394B67",
"k  c #314973",
"l  c #494448",
"z  c #564C46",
"x  c #5D5343",
"c  c #5A544B",
"v  c #484855",
"b  c #5C5553",
"n  c #5A5558",
"m  c #4B5158",
"M  c #644949",
"N  c #655B4B",
"B  c #6C5D4D",
"V  c #645549",
"C  c #6C5C55",
"Z  c #645D5B",
"A  c #675955",
"S  c #735A55",
"D  c #77534E",
"F  c #6D614E",
"G  c #72634D",
"H  c #6D6354",
"J  c #6C635C",
"K  c #68635C",
"L  c #736453",
"P  c #756955",
"I  c #73655B",
"U  c #766B5A",
"Y  c #7A6C5B",
"T  c #7B655B",
"R  c #7A725E",
"E  c #77705E",
"W  c #485669",
"Q  c #555968",
"!  c #4A5A75",
"~  c #535D7B",
"^  c #4E4E63",
"/  c #655E62",
"(  c #57626E",
")  c #57657A",
"_  c #4E6673",
"`  c #6B6563",
"'  c #696668",
"]  c #716762",
"[  c #756C63",
"{  c #7A6D64",
"}  c #746C6B",
"|  c #786A69",
" . c #7C7363",
".. c #76726C",
"X. c #7C746B",
"o. c #7D796D",
"O. c #797466",
"+. c #686A75",
"@. c #756D75",
"#. c #7C7572",
"$. c #7E7B75",
"%. c #79767A",
"&. c #6B7277",
"*. c #9B302F",
"=. c #C33736",
"-. c #924C57",
";. c #84695D",
":. c #846D68",
">. c #837465",
",. c #84756A",
"<. c #847B6C",
"1. c #88796A",
"2. c #827672",
"3. c #837C73",
"4. c #8B7D73",
"5. c #837D7A",
"6. c #8A7D7A",
"7. c #857776",
"8. c #937F77",
"9. c #8E706C",
"0. c #B4626E",
"q. c #9D5663",
"w. c #D15256",
"e. c #CD686D",
"r. c #E86164",
"t. c #853C4D",
"y. c #7F8077",
"u. c #87816E",
"i. c #858275",
"p. c #8B8374",
"a. c #85837B",
"s. c #8B847B",
"d. c #8C897C",
"f. c #88887A",
"g. c #92847C",
"h. c #928B7D",
"j. c #97827A",
"k. c #A3847A",
"l. c #052C82",
"z. c #083387",
"x. c #12398E",
"c. c #18418E",
"v. c #324C87",
"b. c #5C6B84",
"n. c #576984",
"m. c #5A748F",
"M. c #636B86",
"N. c #697688",
"B. c #7A7887",
"V. c #697995",
"C. c #71778C",
"Z. c #637EA2",
"A. c #887E85",
"S. c #BE7586",
"D. c #74818C",
"F. c #798598",
"G. c #678198",
"H. c #778AA4",
"J. c #7995AD",
"K. c #7FA0AF",
"L. c #848382",
"P. c #8C8482",
"I. c #8C8B83",
"U. c #8D8C8B",
"Y. c #8A8689",
"T. c #928683",
"R. c #938A83",
"E. c #938D8A",
"W. c #9A8D88",
"Q. c #8E9086",
"!. c #94928D",
"~. c #9B928D",
"^. c #949285",
"/. c #868A96",
"(. c #938F91",
"). c #949393",
"_. c #9C9493",
"`. c #9C9A94",
"'. c #9C9A9C",
"]. c #96969A",
"[. c #86919B",
"{. c #A29593",
"}. c #A29B95",
"|. c #A39C9B",
" X c #A89B9A",
".X c #A9908E",
"XX c #A8A39C",
"oX c #B2A49B",
"OX c #8797A9",
"+X c #989BA4",
"@X c #889AB5",
"#X c #8D95AB",
"$X c #A29DA3",
"%X c #B09BA0",
"&X c #98A2AB",
"*X c #98A6B9",
"=X c #89A4B5",
"-X c #A4A3A5",
";X c #ACA4A3",
":X c #ACA9A4",
">X c #A4A4AA",
",X c #ADABAB",
"<X c #A9A6AC",
"1X c #B2ADAD",
"2X c #B6AAA7",
"3X c #B3B3AC",
"4X c #B9B4AC",
"5X c #A8ABB6",
"6X c #B4B2B2",
"7X c #BBBAB3",
"8X c #BCBBBB",
"9X c #B8B4B8",
"0X c #B3AEB4",
"qX c #C2B9BC",
"wX c #CCA9B1",
"eX c #F0A6B1",
"rX c #DA93A2",
"tX c #C3C2BD",
"yX c #9CACC4",
"uX c #98A8C6",
"iX c #9EB3C7",
"pX c #A3ADC3",
"aX c #A4B2C5",
"sX c #A8B6CB",
"dX c #BCBCC2",
"fX c #B8BAC7",
"gX c #ACBCD3",
"hX c #B1BACE",
"jX c #C5BCC3",
"kX c #FAB2C0",
"lX c #B5C4DB",
"zX c #B6C1CE",
"xX c #BACBE5",
"cX c #C5C5CB",
"vX c #CBCBCC",
"bX c #C6C5C6",
"nX c #D3CBCC",
"mX c #CCCDD3",
"MX c #C7CAD6",
"NX c #D5CDD4",
"BX c #CED2D7",
"VX c #D2D2D5",
"CX c #D3D4DB",
"ZX c #D9D8DB",
"AX c #D0D1CD",
"SX c #E2DADB",
"DX c #EFC7D3",
"FX c #D8D9E4",
"GX c #CBD2E3",
"HX c #E5DBE4",
"JX c #DEE2E4",
"KX c #E7E5E8",
"LX c #FEFEFF",
"PX c #F6F5FA",
"IX c #E7EBF3",
"UX c #E0E2DF",
/* pixels */
"2.X.X.] & X X : x N V K H J O.[ X.7X!.} A.6.5.s.s.R.R.E._.}.}.}.>X<X<X0XmXKXPXLXLXLXLXLXLXPXCX<XaX5X<X%X$X'.'._._.).!.!.!.Y.I.Y.",
"2.3.o.2.H : . X : x x V H K ] I U `.tX|.} #.I.a.s.s.h.E.~.!.E._.'.'.$X>X<X<XfXNXKXPXLXLXIXdX-X3X<X>X$X+X`.]._.~.E.U.Q.U.Y.L.A.A.",
":.4.3.4.4.C & X X 1 x c Z H K J ] R.:XbX-X| @.i.a.a.5.P.E.!.E.).].].].+X$X>X>X>X0X8XFXCX,X+X<X&X;X'.~.`.).!.!.E.(.Y.L.L.s.E.2XqX",
"X.<.2.<.1.1.G : . & A N c N C J Z #.}.9XNXjX3.J ..3.5.5.P.L.a.Y.Y.Y.].].].+X$X'.+X+X].].+X'.'.+X(.(.E.P.I.U.Q.P.5.%.L.'.9XNXSXSX",
"3.{ o.3.3.4.,.C ; 2 J A x N F F K 5.E.`.4XNXnXXX%.A.L.Y.U.Y.U.`.,X6X7X-X].].>X<X&X&X<X>X].].>X].).!.I.I.I.L.y.$.|.4XnXZXSXHXAXqX",
"3.{ o.u.3.1.<.,.V C U N x N F F I X.E.|.|.2XnXUXbX-X$X1X6X8XvXZXJXKXIXUXCXFXJXFXFXGXmXCXMXfX5X>X`.'.}.~.U.!.,XnXHXKXKXSXSXnX4X~.",
"5.} o...o.i.3.3.2.{ U C F G P P [ 3.s.~. X;X9XNXKXmXvXCXFXJXKXKXJXJXKXIXIXJXJXKXIXIXIXFXCXCXmXvX9XjXbXjXvXSXHXSXDXNXnXjX4X X!.Q.",
"$.[ y...O.3.4.3.,.X.U U U P Y R :.,.#.E.}.|.0X8XvXmXVXBXZXZXVXZXvXBXZXCXVXBXCXCXFXFXFXBXcXcXmXmXFXZXNXZXHXZXcXqX2X2X;X X{.`.~.R.",
"y.[ a.O.o.O.J a.3.,.[ [ [ [ { ,.>.<.p.R.;X;X1XjXcXvXmXVXBXAXmXVXvXAXBXAXvXBXvXAXBXCXBXBXmXMXcXmXGXNXMXNXnXqXrX%X%X.X~.~..X{.~.^.",
"y.o.y.o.i.[ H [ 3.#.{ [ [  .X.#.1.3.d.~. X X0XmXmXBXVXBXBXVXVXmXvXAXBXAXbXcXzXvXMXGXFXCXCXCXBXBXMXMXcX9X%X;X%X%X.XW.{..X{.{.~.^.",
"O.i.3...3.[ J H X.:.X.{ { :.4.4.p.4.f.Q.}.<XnXHXZXCXAXVXVXAXvXAXzXAXAXtXtXtXbXvXBXCXCXCXCXZXCXVXMXjX9X$X]..X8.8.8.k..XoX}.}.}.~.",
"i.h.i.i.d.J O.<.<.,. . .:.7.4.4.s.s.I.`.qXNXHXHXVXmXbXmXAXbX6X8XtXtXtX7X8X8X8XbXBXBXmXvXmXVXVXmXGXMXjX0X%XA.9.9.9.k.oXoXoXoXoX}.",
"+.+.( &.&.Q ' C.%.%.#.&.X.#.7.5.Y./.(.:XZXZXAXcXqX6X1X3X0X,X,X8X7XtX7X3X3X:X-X:X3X,X,X,X8XdXcXcXjXbXvXbX;X7.;.;.;.^.4XoXXX:XXXXX",
"= - = - 0 0 0 l l l l l b b b Z Z ( ].bXNXcX,X>X|.].}.).a.Y.:X7X7X8X,XXX!.y.$.y.Q.Q.`.,X6X8X8XfX0X9X3XjXtX.XT D G k.oX3XXX:X:XoX",
"j g j j j j j j j a 7 4 g g j Q Q Q pXBX0X`.).L.P.Q._.E.a.I.XX:X3X7X&XQ.y.y.y.o.y.y.Q.'.6X8X8X9X;X-X].-XtXqX1., G k.3X4X:X3X:X:X",
"q h g j j k ! k n._ ! _ n.W g W ^ &.zXfX(.%.} ' ` ] ` ' a.U.!.~.&X3XXX^.f.y.i.f...K n ' D.-X,X>X$X).].].2XtX.XD D ;.oX7X3X3X3X:X",
") _ n.! n.n.m.m.Z.Z.Z.Z.m.! 9 0 # /.mX9X&.' c - %   l l n Y.(.A.!.-X1X;X{.{.{.6.f ; - % % l ..A.U.!.].`.'.3X8X'.%.y.4X7X4X3X3X,X",
"H.G.H.H.G.J.@XJ.K.K.J.Z.n.j = 0 m fXZX>X} %.K % @ 0 Z f - 7.T.Y.s.`.;X X{.;X{.] = % +.m . ; 1 ..L.U.`.`.`.-X8XvX8X-X1X7X3X3X3X3X",
"G.H.H.H.J.K.@X=X=X=X=XK._ = 9 * +.dXVX|.@.%.] % @ f / n / ` E.T.U.}.|._.}. X~./ A l z f @ l 7.T.5.R.).!.!.!.>XvXAX1X_.:X7X4X3X3X",
"J.H.H.H.H.J.J.J.K.=X=XK._ # 0 * ( aX8X).' y.$.1 @ @ . / ` ` T.T.E.`.{.{.{.|.A.b / ' / / - } A.7.@.D.I.Q.!.!.].3X7X:X).`.tX7X3X3X",
"D.F.N.W W _ _ _ m.m.N.G.m % = # +.9X1XL.n Z $.} z - l n Z 6.{.{.A.W.W.W.{.%XE./ Z ] %.@.` A.6./ ` $.a.a.Q.I.!.`.:X:X`.!.4XtX7X3X",
"F.D._ O O O $ $ $ $ $ _ m # - @ ) 5X$XU.} n K $.Y.5.A.~.E.T.(.T.T.T.T.W._. X|.T.~. XE.T.@.| b b ' ..$.f.I.f.L.U.Q.`.`.^.!.tX7X3X",
"F.[.D.y.D.D.&._ _ _ W C.g # = O &.5X(.$.#.#.$.L.W.;X,X;X{. X~.6.8.8.T.W.W.{. X;X4X;X;XE.7./ Z ' [ ..y.f.d.f.f.f.I.Q.d.Q.y.:XtX7X",
"&X&X&X&X=X&X&X=X&X&X*XC.# * * $ +.&XU.5.#.5.I.E.|.XX;X{. X~.T.:.:.9.A.A.T.}. X X%X4X<X{.E.7.| X.} y.d.f.f.f.f.f.Q.y.f.i.y.h.tXvX",
"OXOX&X*X>X*X*XpX>XaXpX) O * * * 0 /.).y.a.#.$.Y.~._.}.}._.~.4.J ;.:.:.2.9.T. X{.XX;XXX'._.6.@.i.f.f.d.d.i.p.f.a.y.y.f.i.y.i.XXAX",
"D.D.F.F.[.OX+X&X5X>X&X( O * * 8 9 %.Y.$.L.a.$.5.P.P.I.T.T.T.| x S | :.T ] 2.~.R.R.E.!.!.E.6.5.P.R.d.d.d.i.i.d.a.f.f.f.y.y.O.y.,X",
"( Q n m b n ` [ @.D.[.g O * * # # ) D.O.......#.#.$.2.#.2.3.] z D T { J C { 4.3.5.$.L.P.5.s.Y.d.f.s.p.a.i.d.f.f.y.f.y.i.y.O.E ^.",
"%.@.&.} ' / Z K n &.D.= $ * * * 9 +.(.3.$.%.} ] ] | #.@.| 2.| C M M D C I { X.X.#.$.$.$.$.5.Q.Q.f.a.f.a.f.d.d.i.y.f.f.y...[ ..a.",
"@XOXOXOXOXOXOXOX[.OXG.$ # 8 9 h q &.].5.7.5...` / ' ......| | I M M M S | | | { | #.%.#...u.f.h.R.h.s.d.d.d.I.f.a.a.d.<.E E o.o.",
"K.@X@XOXOX=X=X=X>X*X) O 8 9 8 8 O W +XE.P.L.$.} / K ` ' } | J A A M M A C J I | } ....#.5.p.i.y.R.h.R.R.d.d.d.i.3.i.a.o...O...o.",
"OXOX#X@X*X*XuXuX*XuX! + 8 8 7 7 w ~ +X(.L.L.5.$.} / Z Z ` J A V M M M M M Z Z ] } } X.5.f.s.i.o.d.d.R.^.Q.h.d.3.p.s.i.o.,...O.2.",
"H.OX*X*X*XiXuXiXiXK.q + 4 # 8 ! k ^ Y.$XE.a.5.$.%.} Z Z Z C A A A S S C A A A J | @.$.5.5.s.d.h.s.h.R.R.h.R.R.a.d.s.u.X.O.O.o.o.",
"H.J.@X=XuXuXiXsXsXH.7 7 8 9 j w 8 ! H.+X).s.7.A.5.#.] J K b K K S | | | ] ] } ] #.5.g.s.4.<.p.h.h.h.h.h.^.^.h.d.d.p.o.O.O.O.o.o.",
"#X@X*X*XuXiXiXsXsXV.O 6 a j 9 w ~ ! ! /.!.R.T.A.#.#...} ` K [ O.} | X.X.| X.@.#.2.5.5.3.a.d.h.d.p.h.h.f.f.h.h.d.f.u.....O...o.y.",
"@XuXyXyXyXaXaXsXiXm.+ a s a a k k 6 5 j F.(.T.g.g.5.5.X.O.[ [ [ | { X.X.X.X.2.2.,.2.1.u.p.d.h.p.h.p.p.h.d.f.p.d.i.<.O.[ O.O.y.a.",
"*X*XyXyXyXyXsXsXuX! 7 s a w j k 6 6 q 7 ^ ).}.T.T.P.3.5.X...X.} :.X.2.2.2.2.2.2.3.3.p.p.p.u.u.h.h.p.f.d.d.p.p.p.o.O.E E [ ..y.f.",
"pX5XpXpXaXaXhXgXuXi 3 s s s r r r 6 t 6 6 M.A.E.E.g.A.6.3.2.2.2.3.3.3.4.3.3.3.5.j.4.u.p.p.u.u.u.p.h.h.h.p.d.i.o.X.[ [ [ ..o.i.f.",
"*X*XpXaXaXsXhXzX@X3 a a s 6 r s 6 r 6 r 6 w B.E.T.T.T.T.6.3.3.4.4.3.4.s.s.4.p.6.p.p.p.u.u.u.u.u.u.h.h.h.h.s.u.O.E E E { O.o.a.I.",
"pX*XpXaXsXsXgXgXZ.+ s s 5 5 e i 5 e r e i + ) <X_.T.s.T.g.6.6.T.s.s.g.s.g.s.s.s.u.p.u.u.u.u.u.u.p.u.p.h.p.u. .R U U [ O...o.a.I.",
"5X5XpXhXsXsXgXgXm.3 s 5 6 5 t r e 5 r e i 3 F.vX2X~.R.T.g.g.P.T.g.s.s.g.h.g.g.4.u.u.u.u.u.u.u.u.p.h.h.u.1.R R R Y { O.O.O.o.i.I.",
"yXyXsXgXsXgXlXiXv.r i r e e p i p y p p e 5 uXMXqX{.R.R.R.T.g.g.g.g.g.h.g.g.p.p.4.u.4.1.p.p.j.j.p.u.u.u.O.H P R Y U {  .X.o.f.Q.",
"*X*XaXzXzXgXlXuXi e i d r e r y y y e y y 5 uXGX7X}.h.R.R.T.R.T.g.g.g.g.g.g.p.p.j.p.p.p.p.p.p.p.<.<. . .E P P P {  .>.X.X.o.a.Q.",
"yXyXpXgXgXlXxXK.d i u y u y y u l.z.y u e t iXmX7X`.R.R.g.g.W.W.g.g.g.g.p.j.j.4.p.p.j.1.u.p.u.1.>.R U P P R R P Y  . . .o.y.f.!.",
"iXlXsXsXxXxXgXZ.3 x.y y y y p u l.u u p e s yXcX6X}.T.g.W.g.h.g.g.g.g.4.1.4.1.4.1.1.1.>.1.>.>.>.R P G G P R R P Y  .X.>.o.i.I.Q.",
"OX@XpXgXlXxXgXm.d x.l.z.l.z.z.z.l.z.l.z.e t iXbX4X{.R.T.g.g.g.g.g.g.8.6.1.:.1.4.1.1.>.>.>.>.R Y R P P L P ;.R P R  .>. .<.f.d.I.",
"j W ~ M.V.J.@Xk u x.z.z.z.z.z.z.z.z.l.x.e i *XtX0X|.W.T.j.j.g.g.T.g.6.8.<.:.>.4.>.9.>.>.>.R >.Y P P P P P P P R R  . .o.3.i.f.I.",
"W ^ v g w 7 7 q q a a a t t i i i x.x.x.z.i uXdX0X XW.k.g.8.g.8.6.8.8.8.1.:.>.>.>.>.>.>.R R P Y P P G P G P R R R R  .<.i.f.I.Q.",
"_ ~ ( ~ ! W j k g a a a a s t s c.c.c.c.c.k uXdX<X X~.T.g.8.8.8.6.6.6.4.9.,.>.:.>.>.>.;.R P P P P G ;.G G P R >.O. .o.o.i.f.L.f.",
"n.b.b.n.b.m.n.n.! _ ! ! W g g j w w q h g ! *XjX,X}._.R.j.4.p.4.1.1.1.9.>.;.Y Y R R >.R Y P G G G P P G R R >.>.R >.u.u.u.f.f.f.",
"n.) n.n.m.V.) ! n.n.~ ~ _ ) n.~ ) ! ! j j j OXaX3XXX}.W.h.j.1.1.1.1.9.>.R T P T T I Y Y P P G G G G P P P P R R >.R  . .u.f.f.f.",
"n.) n.) M.) ( ! ~ ~ ~ ~ b.n.n.b.M.) b.m.b.) F.,X3X;X}.W.W.j.<.4.9.>.:.Y Y T I Y L L T T T G F G G G G P P R R R R R u.u.p.f.f.d.",
"H.H.V.N.M.) ! ( ~ ~ ! ! ! ~ ~ n.b.M.n.n.b.N.&XtX3X;XXXW.g.g.4.1.>.;.R ;.T L L U L L L L G G G F G G G P P R R R 1.u.u.u.i.f.f.d.",
"*X=X@X@XH.F.n.! C.C.C.M.M.b.) ~ n.) ) ! ! N.sXFX,XXXXX}.W.h.g.3.1.R >.Y T L G L S I L I B S L S G G G P P U R R R y.u.u.p.p.f.f.",
"yXyXiXuX*X*XF.M.M.M.V.H.OX@XOX[.M.g h 8 8 #XGXGX;X!.{.XX.XW.g.4.>.>.:.Y T L G L L L T S B G L G G G G L P U R R u.u.u.f.i.p.p.p.",
"uXuXuXiXyX*X*X>X#X/.F.F.C.D.C.B.m O ~ C.[.yXFXGX3XE.Q.~.~.^.h.p.:. .R T L L L G S G L L G G G B G G G G P R R  .u.u.u.u.f.u.p.p.",
"gXiXsXiXyX*X#X#X[./.C.W g ) N.&.0 # ( #X[.aXFXFXtX|.a.s.h.~.h.p.<.>. .T L S G B S G C T D B B G G G G L P R  .1.R u.u.u.u.u.f.u.",
"xXGXGX/.@.@./ @./ / +.w ^ M.A.B.^     # f *XFXCXvX1XE.5.3.I.R.s.3.2.Y I I S B G F G G F F N G V N N F E R R O.O.u. .u.y.u.u.u.R ",
"uXxX#Xj ^ @.v ~ ' v A.+.B.A.M.v v f f     D.FXCXbX4X`.a.3.2.2.3.3.:.| L S V V V F F G F B N B B F F F P P E R R R u.R y.R R O.O.",
"B.A./ t.q.-.> S | / A.A./ +./ A.hXMXfX&Xm = 9XCXnXbX;XE.5...O.X...X.[ J A V V V F F F N V V V B N N F F P P E E R E R R R R R o.",
"^ ^ w t./ t.M | @.| @.@.+XhXMXGXFXFXFXGXzX&.&.MXZXqX:X!.s.X.J Z A I J J C V A D N x x x x x x x x x N F F H E E R R E R R R u.y.",
"0 0 > 1 , , > < < , q.rXeXeXeXkXDXDXDXDXHXHX9X<XjXdX0X$XQ.o.Z Z m c c b A b A b x x x 2 2 2 2 2 x x F F F F H P P K H P E E O.y.",
"@ @ @ > < < > > t.-.0.0.q.q.-.0..XrXrXqXwXjXjX1X-X1X|.E.y.[ c c 2 1 - 1 z z z z 2 2 1 1 2 2 2 2 x x x x c N c N N N F H F P E E ",
".     . < , q.S.S.e.w.w.r.w.w.w.=.=.=.*., 9.A.T.A.B.' n c c 1 1 : = ; ; & - & - & 1 & 1 & 1 1 2 2 2 2 2 x x N N N N H H H U E E ",
"v l - ; 8 < , t.*.0.e.r.r.r.r.w.r.w.w.S.rXwXjXjX0X$XY.` - ; : : ; o o . o X . % & X & & & & 1 1 1 1 2 2 2 2 x c c N F H H U E E "
};
