/* XPM */
static char *b3iek_3c76c[] = {
/* columns rows colors chars-per-pixel */
"64 64 176 2 ",
"   c #000000",
".  c #080706",
"X  c #080807",
"o  c #0C0C0B",
"O  c #100E07",
"+  c #110E0C",
"@  c #0F100A",
"#  c #14120E",
"$  c #19130E",
"%  c #0F0F11",
"&  c #110F11",
"*  c #151312",
"=  c #1A1613",
"-  c #171814",
";  c #1C1915",
":  c #191718",
">  c #1D1B19",
",  c #221B16",
"<  c #211D1A",
"1  c #281C18",
"2  c #381813",
"3  c #3A1E19",
"4  c #1F201A",
"5  c #25221D",
"6  c #2A231C",
"7  c #2E281D",
"8  c #31241D",
"9  c #3C241D",
"0  c #252321",
"q  c #2B2622",
"w  c #2D2924",
"e  c #2E2B28",
"r  c #332522",
"t  c #3A2721",
"y  c #332A24",
"u  c #3B2D25",
"i  c #332E29",
"p  c #3A2F2A",
"a  c #2F3026",
"s  c #363126",
"d  c #3A3426",
"f  c #34322B",
"g  c #3C342C",
"h  c #373531",
"j  c #3B3631",
"k  c #3D3933",
"l  c #411D18",
"z  c #4F1E18",
"x  c #551C17",
"c  c #541E19",
"v  c #46211E",
"b  c #72221C",
"n  c #402622",
"m  c #4B2722",
"M  c #432B24",
"N  c #4C2A23",
"B  c #472D2B",
"V  c #522B24",
"C  c #44352F",
"Z  c #4A342C",
"A  c #47392E",
"S  c #4B3B2D",
"D  c #52332D",
"F  c #5D342B",
"G  c #533D2C",
"H  c #5B3E28",
"J  c #413631",
"K  c #4B3730",
"L  c #433B34",
"P  c #4B3B33",
"I  c #463E38",
"U  c #513431",
"Y  c #543E35",
"T  c #5A3B32",
"R  c #553E3B",
"E  c #583938",
"W  c #612C27",
"Q  c #6C2B24",
"!  c #7C2720",
"~  c #732822",
"^  c #7A2B23",
"/  c #73342C",
"(  c #7B352D",
")  c #743A33",
"_  c #454135",
"`  c #4C4336",
"'  c #45413A",
"]  c #4B443C",
"[  c #534436",
"{  c #594435",
"}  c #5F4B36",
"|  c #52443A",
" . c #59423B",
".. c #534A3D",
"X. c #5B4D3E",
"o. c #624837",
"O. c #6A4C35",
"+. c #6E473C",
"@. c #634C3F",
"#. c #6A493C",
"$. c #704F35",
"%. c #794139",
"&. c #4B4640",
"*. c #4D4A42",
"=. c #554640",
"-. c #544C43",
";. c #5A4C43",
":. c #555043",
">. c #5A5144",
",. c #55524E",
"<. c #5C5349",
"1. c #604740",
"2. c #6D4D42",
"3. c #645244",
"4. c #695544",
"5. c #615847",
"6. c #63544A",
"7. c #6A534C",
"8. c #645A4C",
"9. c #6C5C4B",
"0. c #755346",
"q. c #765B46",
"w. c #715548",
"e. c #765C4C",
"r. c #7B5E4D",
"t. c #695451",
"y. c #655C52",
"u. c #695D52",
"i. c #7A5E58",
"p. c #6F604E",
"a. c #75624F",
"s. c #6C6153",
"d. c #6D645A",
"f. c #726554",
"g. c #7B6153",
"h. c #726956",
"j. c #72665C",
"k. c #746A5C",
"l. c #7C6A5A",
"z. c #7D715E",
"x. c #746A61",
"c. c #7B6B63",
"v. c #7B7264",
"b. c #7C746A",
"n. c #777372",
"m. c #842922",
"M. c #8D2E27",
"N. c #95342B",
"B. c #825348",
"V. c #8C594A",
"C. c #836A55",
"Z. c #8C6853",
"A. c #8B6D58",
"S. c #9C6758",
"D. c #91725F",
"F. c #9B755B",
"G. c #837463",
"H. c #837865",
"J. c #82776C",
"K. c #847A6C",
"L. c #8C7B69",
"P. c #987464",
"I. c #9A7D6B",
"U. c #97836F",
"Y. c #8B8073",
"T. c #998675",
"R. c #93847B",
"E. c #B08370",
"W. c #9C9184",
"Q. c #9C9490",
"!. c #A19485",
"~. c #AEA395",
"^. c #B8A696",
"/. c #B1A799",
"(. c #B9B1A9",
"). c #C59F8A",
/* pixels */
"                                                                                                                                ",
"                                                                                                                                ",
"                                                                                                                                ",
"                                                                                                                                ",
"                                                                                                                                ",
"                                                                                                                                ",
"                                                                                                                                ",
"                                                                                                                                ",
"                                                                                                                                ",
"                                                                                                                                ",
"                                                                                                                                ",
"                                                                                                                                ",
"                                                                                                                                ",
"                                                                                                                                ",
"                                                                                                                                ",
"                                                                                                                                ",
"                                                                                                                                ",
"                                                                                                                                ",
"                                                                                                                                ",
"                                                                                                                                ",
"                                                                                                                                ",
"                                                                                                                                ",
"                                                                                                                                ",
"                                                                                                                                ",
"                                                                                                                                ",
"                                                                                                                                ",
"                                                                                                                                ",
"                                                                                                                                ",
"                                                                          X * o o                                               ",
"                                                            . p < , , $ . 5 j &.0                                               ",
"                                                        X o 1 Z Z t l m @.8.] L k .                                             ",
"                                                X > r t M N V l V n U T 3.f.<.I ' >                                             ",
"                                              # e B u J E 2.V 3 B E 2.C.6.4.<.&.] L = o . .                                     ",
"                                            ; B T U t D 1.7.K g E 7.l.L.j.<.K =...;...g e ' w                                   ",
"                                          0 { F / z 3 ~ ( ) D ;.7.| 8.c.c.&.] C K w.q.f ] d.-.f +                               ",
"                                        # J 0.Q ^ m m m.N.N.c F i.] ;.u.6.P ] J P e.[ e ' s.<.:.t X                             ",
"                                      X > g #.F x 2 V m.M.b W 0.f.-.8.>.L I J p | C , , i ..;.8.` ,                             ",
"                                    . > y ] +.V 2 c ! b ~ ) S.2.;.>.*.<.R j y p K , ; = q ..5.s...g .                           ",
"                                  o q k >.5.9.@.m z x x ) S.I.[ 6.-.L -.;.g y p t - = = 5 L y.8...u +                           ",
"                                o k :.<.s.9.k.f.f.P.B.V.E.C.] -.v.d.' ] ] s r y 6 # # # , _ u.k.y.] 6                           ",
"                                5 ' :.s.h.H.Y.h.h.T.).E.p.` ;.c.K.c.y.' _ d 6 1 $ o # # = s <.k.y.-.L #                         ",
"                              . q L ..5.h.W.!.h.h.f.Z.O.d d ;.G.W.W.K.v.h.>.L 6 # o O # = 5 j L j s y >                         ",
"                              X 5 ] p.v.U.^./.z.h.p.a.` y y L y.j.c.J.x.k.d.s.<.y $ $ $ * ; 6 f ` >.P u X                       ",
"                            . - 5 ' s.z.H.!.~.L.p.} 5.<.g g j L ' I &.I ,.;.<.<.` s i 6 , = 0 f X.H.8.K ,                       ",
"                            X = ; k <.h.b.R.R.z.@.[ ` ..;.L f w q f f q w L >.p.X.` _ I r = w I >.y.I y 6 .                     ",
"                            + ; 4 &.x.s.b.Q.g.a...` C.{ w i 0 * * ; w i j K 7 ] ;.C ' _ d 5 7 y g :.y.J q o                     ",
"                          X , * * , ' <.d.n.t.9.[ $.F.} , = ; @ * $ ; 6 6 3 * : 5 5 f d d ; ; 7 d L k f w +                     ",
"                        . 0 5 ; * ; q <.Q.x...[ [ C.a.{ 7 ; , ; # * ; # = + @ * # - > 5 w * ; 5 5 > q < = -                     ",
"                        * > < > : - * -.(.K.L 7 { 3.{ q 6 6 , $ # = = X o & o * * # = - 5 - o @ - - @ > > ; .                   ",
"                        < u S t > X X i u.:.A 9 P q ; ; 6 6 ; # $ > O # @ o o o # + = < 5 5 o X > h 4 e k 5                     ",
"                      + -.{ O.O.>     q 8.[ T %.p o * 5 , ; # $ , # # * # o o o % % ; w d g 0 X % 0 f : k k X                   ",
"                      * g.A.O.G .     q <.| D U + . : - = # $ $ , # X + # o % o X - 8 q f f w 0 % : a : a *.@                   ",
"                      5 [ o.H $       5 >., * o   & ; $ # $ # ; # # o o O # + + + 1 C g w f ' ' 0 : 4 4 4 ' ;                   ",
"                      = t [ v .       ; >.>       & # # # # # # $ - # # o O O $ 1 r f 7 q h h f * : 4 4 0 k w                   ",
"                    . = 8 G ;         * L ;       o # $ # + + # ; - # @ o   o 5 8 7 5 > 0 q < o X * : 0 4 w k X                 ",
"                    . $ 9 s X         * s 5       X = ; $ # $ ; * & & * . # d d y ; o o * @       % : f e 5 f 5                 ",
"                    * ; M ,           o y ;         % * % % * # & - &   * Y 9.d ;                 % * e e e w ' <               ",
"                    : 8 u .             > ;           * & - @ * o %   $ K D.G.6 .                 o % < w a w &.&.o             ",
"                  & < u ;               # >               .         < 1.e.I.L -                   % & ; w e w &.d.h X           ",
"              . w j i r .               X * .                 . - g r.0.3.9.o .                   o o : w k ' *.*.' 0           ",
"            % J G.x...<                                       & =.w.r.X.j J                       . o & 0 k d.b.8.:.&.o         ",
"          =  .=.I -.t.q                                         < r 6 o o .                         o % 0 ' x.W.K.s.*.:         ",
"      o q =. .:   X &.g                                                                             . % - a k &.*.h f -         ",
"      e ;.p .       > q                                                                               . o - a *.,.k w *         "
};
