/* XPM */
static char *floor_02[] = {
/* columns rows colors chars-per-pixel */
"64 64 120 2 ",
"   c #4D320E",
".  c #52340B",
"X  c #553915",
"o  c #5D3D14",
"O  c #5E4117",
"+  c #5E4218",
"@  c #634216",
"#  c #64451B",
"$  c #68471C",
"%  c #65491E",
"&  c #6A491E",
"*  c #614622",
"=  c #654922",
"-  c #6C4C23",
";  c #6C4E2A",
":  c #704F26",
">  c #6D5027",
",  c #6F5129",
"<  c #735225",
"1  c #795627",
"2  c #73542A",
"3  c #76582F",
"4  c #7C5A2D",
"5  c #795733",
"6  c #765A33",
"7  c #7C5C33",
"8  c #7C5F38",
"9  c #7D6037",
"0  c #7E6239",
"q  c #805629",
"w  c #815D2E",
"e  c #835F31",
"r  c #856234",
"t  c #8A6536",
"y  c #8A6836",
"u  c #84643B",
"i  c #8B6739",
"p  c #86683F",
"a  c #8D6A3C",
"s  c #926C3D",
"d  c #986F3F",
"f  c #94703F",
"g  c #876941",
"h  c #8C6C43",
"j  c #896E49",
"k  c #936E41",
"l  c #8E7047",
"z  c #8D724A",
"x  c #957243",
"c  c #9B7445",
"v  c #9C7947",
"b  c #93744A",
"n  c #9B7649",
"m  c #95794F",
"M  c #9E794B",
"N  c #967952",
"B  c #9D7D53",
"V  c #987D58",
"C  c #A07747",
"Z  c #A17847",
"A  c #A0774A",
"S  c #A37C4C",
"D  c #A87F4F",
"F  c #A47E51",
"G  c #9E8057",
"H  c #97805C",
"J  c #9F815A",
"K  c #A5804F",
"L  c #A9804F",
"P  c #A68153",
"I  c #AA8454",
"U  c #AD8857",
"Y  c #A5855A",
"T  c #AB8659",
"R  c #A6885A",
"E  c #AD895C",
"W  c #B08757",
"Q  c #B28B5D",
"!  c #B2915F",
"~  c #AD8D62",
"^  c #A98E6B",
"/  c #B28E61",
"(  c #B88E61",
")  c #B08E68",
"_  c #AE9065",
"`  c #AF9269",
"'  c #B49265",
"]  c #B99365",
"[  c #B5956A",
"{  c #B9966A",
"}  c #B6996D",
"|  c #BB996D",
" . c #B29671",
".. c #B79B72",
"X. c #BD9D73",
"o. c #B69E79",
"O. c #BC9E79",
"+. c #BEA176",
"@. c #BEA27A",
"#. c #C09B6A",
"$. c #C09F73",
"%. c #C2A176",
"&. c #C9A375",
"*. c #C3A47B",
"=. c #C8A77C",
"-. c #C6A87E",
";. c #CBAA7E",
":. c #C4A682",
">. c #C5A982",
",. c #CBAC82",
"<. c #C5AE8B",
"1. c #CAAE89",
"2. c #D0AF85",
"3. c #CCB084",
"4. c #CEB38A",
"5. c #D2B48B",
"6. c #D8B78D",
"7. c #CCB594",
"8. c #D9BC93",
"9. c #DBC29C",
/* pixels */
"g g z N m j V J b m N u p u z m z j u p h p b p p 8 u j l h ; h z B F V z V h p z z u b l x b h g l l z b z m g l b g j l m g b ",
",.F R Q [ T X.&._ _ _ U R Q I n M T C D T Q L S A Q T D I F 8 X.M | $.Q M *.I P b Y T T I D W I U T Q Q E | Q Z ( I ! ( L I S Q ",
"X.F ! ] E Y ,.*.' E X.T D M F S D F W W I P A P F W I W I B 6 | F $.] $.F | U s P Y Q Z D Y I I W U ' ] / Q Q ! M i s s k k ] T ",
";.P P K E E { X...N @.{ ' I F F F F F ! Q W D S U Q / Q ! ( 7 [ [ [ X.~ E O.S I ~ ~ M v / I A i W k T T Q Q / Q ! ] / _ [ ' / W ",
"P | P P ;.T Y [ O.~ -._ Q P S P v n P T I ( W P D T Q ( / ( 6 T $.~ X.Y $.| ! Q [ Y E ] W ' ( E E Q / Q Q ( I T R _ B I S ' F M ",
"[ ,.| P | ! Y ~ _ ` *.Y P P P F Q R T W Q Q ! I I F T F A F 2 E &.%.&.] ,.{ I { { h T Q I / / E ) ( Q ( T / F n R I P [ T I A Y ",
"*.~ $.X.' Q F Y [ O.` | ] ] ' E Q E Q W Q T P M I I S ( ' ( 9 I ;.{ [ [ %.| D | } h E Q E ] P ) E P ! I T Q T / ! / E R E ( E U ",
"3.Y +.@.N ' ~ E -.+.` T E ' Q ] { ' ( ] E Q B P I A F / Q ] 9 / ;._ | $...$.n { ' l T I R B E ' { ' ' { { ' E P P E ~ ' Q B / T ",
"*.~ 5...O.X.E ..%.,.` P G P I _ _ E / E ~ Q Y Q Y ~ E ~ / ! u $.+.| %.$.;.X.P X.*.Y Y ) ] ' { [ _ [ { ] | ' E E E Y } | [ ~ / R ",
"[ R { D ,.B ..3.+.5.O.{ ' M k I K P r E s G , ~ [ $.$.4.[ { , %.{ X.&.{ B X.X.$.} F X.] R l B s B E E [ G } } [ h P | E [ E ' [ ",
"R [ E ' -.Q ,.~ X.4.1.,.E P F f W S x Q a W - | Y $.:...$.} 7 | [ m | %.B %.-.{ 4.~ T ' ( F c D Q D s ( E X.' ' ` %.{ %.' *.Q _ ",
"*.%._ @.3.[ ` ` *._ 4.] T M I S E Q ' E I R - _ P %.:.V { ..5 _ ~ D E %.B $.:.-.O.B { E / ! T T I x ! ! E P } M } [ S *.U _ I ~ ",
"~ ;.*.>.E ] J } [ O.2._ F S ! U F T E / | ( 2 %.} *.<.j _ *.u Y / Z ~ { P O.*.X.Y B [ T ! F c Q I L U W ! Q *.P [ _ ..+.[ X.%.X.",
"E *.} O.m [ X.O.*.7.5.2.l D U T F F ! ( F P 7 _ E >.7.H E _ 6 _ R E B $.S T %.~ Q $.' Q { T T Q s ! c P ( / *./ ] _ X.>.%.X.{ [ ",
"..[ 5.,.' ] *.,...@.9.$.F D a W I Q ! ] x W l | +.>.R <.-.R > *.B [ B P n T S ..E *.E E E Q n c F S E n Q $.X.{ n E *.Q @.P X.{ ",
"*.E ~ | _ ~ ,.|  .^ :.) ~ / c Q I U ' ' F I 7 _ &.O.W 9.*.' , ;.,.{ / m / T F *.,.} F F S ( f P I Q ' ' %.%.m ] [ -.I *.P X.Q %.",
") { E F F 2.{ ;.@.%.@.B Q E n / D I Q B { P g ) @.X.n 3.2.Y 6 E ;.} E x M I P X.:.z S E I ' U I U Q F ( [ ~ X.E $...F ,.~ +.] ~ ",
"' E P E | F ' }  .@.:.m _ Q I ' c / E x | S k [ X.} ~ >.;.m 6 M [ ;.%.m G S P F 4.B E T Q D R E Z I ( E Y { X.| | %.O.O.X.@.[ { ",
"%./ ! n D %.E O.O.-.%.) S x U I I Q ( n | P u X.Y -.+.B 4.| 7 [ Y O.;.E | K E F :.~ / / I D E D P Q _ / ( } [ O.Y T %.( %.R X.[ ",
"' O.' / / B [ :.O. .*.Y R Z U Z Q F F T ' I n *.Y [ *.m 8.T , 3.n -.;.b X.E T B -.{ ! S M P Z I ( T P / ~ | P { / >.E ,.B &.{ *.",
"~ ,.5.X.S E *.+.1...-.F ~ E S ' T c n P | ~ n @.-.*.>.7 @.Q 4 =.P O.;.F M } ..B { } M ! S T P D Q E / E _ X.[ [ ..>.R } c X.E [ ",
"*.{ ,.T Q P [ +...[ O.j ) ' B ' B Y m Y Y m g E ~ *.:.V @.B u  ...:.*.) T O.O.o.z 6 ~ { T B Y ~ F Y ) Y >.F $.E E -.| ;.~ @.R R ",
"B D L Z Z f n S D D x S F A Z K D F I K S I 2 { %.-.7.H 1.R 2 n D P F P P C I f x c k s L I W S P Z T Q E [ X.{ a O.o.@.:.X.%.[ ",
"F A P S P P K Z D D D I s U I d D T K P s n > *.%.E -.^ ..~ 4 W P S d D v Z S Z D L L S W x K Z Y Q T T h X.~ [ R T *.@.@.M %.[ ",
"D D Z W I U L P W S d S S f Z U P I W S T D u ~ ~ B *.>.@._ : U I D P W L D D L D A W P I D L D I B I Q ' X.X.X.Q | @.:.:.' R ;.",
"a v c I c P W d v P s S I S S S D x D S D L z T [ n [ @.@.| 2 P U D v Z D D D Z U L D M D L I Q ( ( Q S n ..&./ %.:.%.*.-.+.Y ~ ",
"x A c S Z S U D K L I S W Q K C c f v S k a E ) _ Y | 6.1.O.# P D Z P L D D F f D I T L P D P S ! ! ' ] T [ *.T *.>.+.[ O.*.X.E ",
"a S x I E Z Q a S L c Z U I W I D D A c S T F ..O.Y F _ o.*.# D D D P I D P L P S S S L L W I P P I S W P [ [ X.+.*._ E E *.$.[ ",
"n P U D Z W F W S S P D D v Z P L W c s c S F -.$._ n b O.[ # T Q T W D D U D P Z D Q S U W U I P I T P P ~ Y ..$.*.R ,.P ~ } %.",
"B L P F Q A / S Z c Z n S D L v x v F I L I b ~ I 2.%.*. .E & P D T / W U T T W F T T Q ! ( E ! Q ( | E ] { | | n *.@.@.%.S ] } ",
"3 5 2 3 5 < u r 6 8 3 - 4 7 1 9 w 4 < r a r 3 r r r r s r r X 2 : < 1 < & : # - & : $ 1 a : 4 a e 1 < e 3 : e < < : 2 4 6 - 2 u ",
"x P E F ! x I B c k a . ' ] K E { Q Z E Q / T ] n x a P F B * { D U I i T i W a n ( I P T W S M S P P E I Q E L R F ( ! ' M Q T ",
"E I a D c I a k n n t o E Q U Q T D T Q Q k T ( U E E I E E - [ ' E S n U Z S F i / Z A I Z F ( F F Q U T E I I / n ' &.[ E / ' ",
"Y ] P F n x F F S e c @ ! ] Q A E T s F S W F x D ( ' I T F = _ Y B I S q D S S f ) v S D F W Q I T S n F P ' n F E I i E { x E ",
"b n [ n c F c k x ] s # U / D v ( ] ( W S S U D n S U S T F - F F P k S I n n S D T I P Z v a A L P S t k T ( S / F ! n U I n E ",
"n F c D S k k k s i Y o I A v S D P D Z A S T Q I s s t D D # ) E S T P D v a S x ! F F A n W c W Q D e P I i v { M Q c A f n n ",
"Y / A Y A S i s a x a # Q P S D P x f f s x f I I D T Q L I > X.E M Q M a i i P A E I I F D v x a v v d W ] T T P c I L D v Q Q ",
"E D T S I c T F k r n % L P D P D D D Z S C D I U U D P I Q 7 E ] ' a n S k s S c P Z n i S Z D Z v n f D P U D U S A Q f S F D ",
"B D I n c F x i Y a r # W W d v d P S M v A S S D L S C S D 2 n U T P Z P Z 1 S Q Y x Z v c c c A c I c x n S S i D D D I T F W ",
"F A A n s n t t a S e # t Z D S D v S t c c n D W U n D P W 3 x Z k P f f n c n S Y c e r D F S F a t r t c F k c i T T W e F I ",
"S M n I n k I w k k B # D U F S Z D P n Z v Z S v c c S D D > B c M I c i S x n s b F k S n i c F S S I k c c w c F Y I T F k S ",
"B T n n x c F u n r M - Q D I Z Z S Z Z S c D U W I L U S D 2 E x F x c c A k n i c m S x t n n i r S I F S F M n k F s D t F D ",
"n F k F s n S i x 4 y - T I I I P I I W P P D D v v v n F x = T F T n x n k k k a T i x l n F a S x P r P D x D I S Q I D n S c ",
"M F s n F S i u k r v + 3 r 3 < r 2 3 1 % o 2 O % = * @ o   : I k F S x S k s x i F : 4 4 2 e 1 1 < & - # * , > & : - < 2 & ; * ",
"n S s c c c 4 t n x x @ E v E / ] R E E h ~ :.M x e a Z S t % M A k T s F e k x r P D S P S S S i T v L W B F E ] Q ' n ' / M B ",
"n S k S s s i 4 a B 4 # R W ! X.n n B b F Y 5.c n w 9 x A b : S S x F e x x a a s B U U Z D A c Q P W U K x P P M P F M / T T D ",
"b S k B h c e x r s r $ Q ! s ! n x T x ,.~ ;.S M y r S c a & Q a a D r h a h n n K S n K c y K U c Z P s f v Z y I F n W W S C ",
"a S a F F c h k 7 < 2 : D S M K n r Y #.{ / *.s s s r x s a % P t F T t 4 i 7 n B M K n Z S Z v S S v P E n D x E W W S I Q n D ",
"F c c x n b 1 k e l t < s c t #.s _ Q { Q ] X.v a r a c a c # F n S v w 1 M : r w i A x Z D S S S c Z s P n n v I P I I T I S v ",
"b c k a r n t k 7 g a : S i a Q u | Q E B | ] x t s i v i c > c i v M 4 h v 0 u c 7 A x D U S F D C c s Q x x S D P S Z S P Z c ",
"n k a n F b 1 c i u r : v n p ] x Q E { _ X.| d A s a D a f & B k n n 4 4 f 2 a k c D t D P v U Z c n c E x x Z Z K Z E c L P C ",
"h S x F F b a k e 1 3 : P F A E n t P | +.R ;.x S f e A a n - I e S U r 1 s 9 n B B P n A v S c D D c F Q y m S C Q Z W S Q v c ",
"B c f S B c w s e u r - Q ( v / n x Y P 1.' %.S I t u f a k = E a a D i s a u x M P M B S c t L T c S D t a n Z D S D W C A S d ",
"S A a B a k s u i F 4 # Q L P &.n n P l } E 3.n U k s c x a : S D a D t a a h x i x Z Z A d d S Q I I d S h n n v x s W v f Z v ",
"Z D k S x c t e x x r o I E E | P P F F u _ -.M I c x n a x - M c x D M c x x x y P P K S S D a S E v S S k n M v s d W c s S A ",
"n F u S x s e u n a K % ! x / E _ P Y ( ~ ' ,.n L s x k f x # s c k Y a S a s m r / W P C I S S S S n I W a n Z S S D Q Z A S c ",
"N N g p 0 z z Y Y Y Q E Q P Y Q Q I m I R T / v D n i c x f % a c B Y s Y P Y Y F ~ B E F N F Y E F l E n r v S Z Q D E S Q v v ",
"Y W U I W U W L S n e c M M S P S Z E Q v v n v Z t e x a x % r x k t I I F c e D S s n I S F Q T D I n r x f S S S A Q d D S C ",
"n P P U P D W v c P P S Z S S S S Z L I U Q ] f v n a n k n - s s 4 a v A S e t t s n M i W I F I P W k a x x S D L S v D P C c ",
"S c S S D S d D E I W I L P K K K L I d Q I ( c a r a M y x # x S 4 P D U s t s k D S D F Q c w a x W P v m v c L I I Z D L A v ",
"n S c x v P Z C c Z Z S K v Z Z S S Z K U S c c t t s M a x - S Z M Z f A c P P F n t P x T Q U A T T F q v M v I I U n P W A Z ",
"S S W W P L D S D P E n S v Z P I K c S y L L d f s r s x a : S Z a S Z D S c a c D a W L W D A A F L Q x n v Z R I Z n D I S I ",
"F I Z A v n Z C D P D D L P Z I L I D I D P I Z v r r M v x - v S S c c S S S C P d P F U I D S c L I Q D l S L d P D n E P W D ",
"P L P S D L I P U W v k f n v M t I I W c Q I L c r r f v l : M n S c C S v Z D D P Z D U I v W W s W c v S U P L I T M T I F S "
};
