/* XPM */
static char *floor_01[] = {
/* columns rows colors chars-per-pixel */
"64 64 124 2 ",
"   c #8D836E",
".  c #838578",
"X  c #87897E",
"o  c #8B8C7E",
"O  c #928873",
"+  c #9C937E",
"@  c #A19277",
"#  c #AC9675",
"$  c #AC9975",
"%  c #A3947A",
"&  c #A5997E",
"*  c #AE9A7B",
"=  c #B29575",
"-  c #B29A76",
";  c #B19D7C",
":  c #B5A17C",
">  c #8D8E81",
",  c #928F81",
"<  c #8E9082",
"1  c #949485",
"2  c #9B9584",
"3  c #9C9985",
"4  c #969789",
"5  c #97998E",
"6  c #9C9C8C",
"7  c #9E9F91",
"8  c #A29780",
"9  c #A39B84",
"0  c #AC9C83",
"q  c #A39D8B",
"w  c #AB9E89",
"e  c #B19F83",
"r  c #BC9D84",
"t  c #A29F92",
"y  c #AA9F91",
"u  c #9FA08D",
"i  c #9EA192",
"p  c #AFA084",
"a  c #A4A18E",
"s  c #ABA28C",
"d  c #AFA98F",
"f  c #B4A183",
"g  c #B9A384",
"h  c #B3A58B",
"j  c #BBA68B",
"k  c #B6A98C",
"l  c #BBAA8E",
"z  c #A4A393",
"x  c #AAA593",
"c  c #A7A896",
"v  c #ACA996",
"b  c #A6A699",
"n  c #AAA699",
"m  c #A6A99A",
"M  c #ACAB9B",
"N  c #B1A692",
"B  c #B2AA95",
"V  c #BCAD93",
"C  c #B2AD9B",
"Z  c #B9AF99",
"A  c #AEB09D",
"S  c #B4B196",
"D  c #BEB094",
"F  c #B3B19E",
"G  c #BBB29D",
"H  c #A6ACA1",
"J  c #AEAEA1",
"K  c #B2AFA1",
"L  c #AEB1A3",
"P  c #AFB3A8",
"I  c #B4B3A3",
"U  c #BAB5A4",
"Y  c #B7B8A5",
"T  c #BCB9A6",
"R  c #B5B6A9",
"E  c #BAB7A9",
"W  c #B6B9AA",
"Q  c #BCBBAB",
"!  c #B3BAB0",
"~  c #BCBDB1",
"^  c #C1AC92",
"/  c #C1B395",
"(  c #C3BA9E",
")  c #CBBE9F",
"_  c #C1B7A1",
"`  c #C2BAA5",
"'  c #CBBDA5",
"]  c #C2BDAB",
"[  c #C8BDA8",
"{  c #C0BFB0",
"}  c #BDC1AE",
"|  c #BEC1B3",
" . c #BDC3BA",
".. c #C3C1AD",
"X. c #C9C4AF",
"o. c #D1CCAC",
"O. c #C3C4B3",
"+. c #CAC5B2",
"@. c #C6C8B5",
"#. c #CBCAB5",
"$. c #C3C5B9",
"%. c #C6C9BA",
"&. c #CCCDBA",
"*. c #D2CBB5",
"=. c #D1CEBA",
"-. c #CED1BD",
";. c #D1D0B7",
":. c #D2D2BD",
">. c #D9D2BC",
",. c #CBCDC2",
"<. c #CED1C1",
"1. c #D4D5C2",
"2. c #D9D6C2",
"3. c #D7D8C4",
"4. c #DADAC6",
"5. c #D6D8CB",
"6. c #DCDDC9",
"7. c #E8DDC0",
"8. c #E2DECA",
"9. c #DFE0CC",
"0. c #E1E1CD",
"q. c #E9E3C9",
"w. c #F0E4C7",
"e. c #E7E5D1",
/* pixels */
"m ,.$.{ L } W A W P P L c A L U x x C n C F A v v F I G U I I x 6 7 t t 6 n P K E K H I b i H H n E R P P W I L o L P Y } } ~ I ",
"P -.%.O.} P W i Q W | } } W L Z y x C I U U G F I F I F U T G n t b b M q I K K I I K K H b b b Z E ~ E Q O.} I Y } | | } } } } ",
"z | | | W Q Q i } W } | -.<.~ s v B C G U G I U U I F T I T ] c z z I U E P I K H I J I K n b b x E E { | O.} Y W i | | | $.<.} ",
"M O.5.| | Q Q z Y | | |  .-.c F a C E U U U T U U F ] F T I U Z x K I E U K I I I I I I K J J H 9 { ~ %.%.%.%.} } } -.-.%.@.-.O.",
"m ~ %.Q | ~ | Q Q | %.} O.x Q ~ F F K U U U T T E U T T T E U v n K K K K E K R K I I I K A H H w E I O.%.%.<.<.%.<.| W | @.| } ",
"P | %.O.Q W ~ O.Q O.| @.M } I v a v U I T T ..] ] T U T T U E v n K K K U K U U I K J R J J K H s ~ ~ %.@.%.$.<.<.<.| | } } I } ",
"I W O.O.@.| W ~ $.} ..O.F } M x F C U U I T ] U F E ] E T U U v C M K n K K I E I K L R I J I P s E E %.%.,.1.5.1.<.<.@.&.c } I ",
"Y O.| O.-.%.O.O.-.%.O.F @.X.9 & C U U E T ..Q U T ..T ..T ] T c y K K K K E M K U J A I I K K P q Q Q %.+.-.<.%.-.%.%.-.} O.A I ",
"Y L F } } @.Q O.Q Y Q d G * & p n C I ` E +...E ..E ] ..T Q U v y E R R { K K I I K M I A A K P 9 ~ } %.%.<.<.&.<.1.1.&.} @.@.Y ",
"M F M I I } } #.%.%.U %.&.f 0 h C G U U E ] ..Q ....U U ` T Q B z J I I K K K K I R I J L I J L d Y L @.@.-.-.&.5.<.&.-.L } } A ",
"W Q Q A U Q } Q O.%.U @.O.V f f F C K U E ] ] ] ] Q U U Q T U v y K K K U R U K I K R I P I J J s I } M } W @.-.%.-.-. .@.@.&.} ",
"%...&.Q Y Q U z } %.U O.| Q k p y C F K T ] ] U Q U U E T T E B z K K K K E I K K I U K K L I R N Y } } z %.%.&.%.-.%.%.@.} -.@.",
"5.%.%.Q Y ~ Q ....O.G ~ O.Q } p B n G K ` [ ] E T T E U ` E U z t M n K E C I I K K Y K J I Y I N Q Q } M } @.&.&.-.@.&.| S -.} ",
"~ %.%.$.~ W O.O.O.O.C W O.A L d n M n G F U Q Q T T U ] U I U x y J K C E K K E R I R J I I P I Z T T T Y ..@.#.&.A Q Q } ..} Q ",
"L ~ ~ ~ W E | } } F v I c z F T B y B I F X.I C c Z n F I F M a 6 b M P I K U E K R R I J K L I M } } ..} @.@.&.@.} ] U Q Y ..T ",
"U E Y I I Y Y E I ..] G G G I d   O O 9 + 2 9 + 9 a + + 9 + 9 3 8 B K G K B G Z x B I G C I F v h G Z z a a 3 u 3 a v m x d S I ",
"Q I z b 6 7 z b b m m z t x M X.B C n q a t & @ & 6 q B F 9 k k 9 q B v C B C C Z T B F C x n b w ] I I M a u u 3 2 z M c z c x ",
"M M b 7 z b b m b M z 6 3 2 v ..U F B G F v s N s t a C K M s k h q x x v C C C v B F F v C x z & Q ] Y A M A v S A z M M A T A ",
"H z z z x m b m m M z z 5 6 n *.x F B I _ B F C x z v M Z C x h 6 x s v C F C Z C M n C v M a B y ] E Y I Y I I I } F c M Q G F ",
"M J M t 6 m m 2 m M b 6 6 z n >.C [ K I ] F ` F F x C F A K z 0 a 3 x C v Z C C d M F Z B F x B q I K I I u } Y u } z z z I F T ",
"z 6 m i z z b 6 z b z 4 2 6 M ;.B _ F I I F I C F C C ] U E b e s 6 a v x G B F C Z C C C B B v 9 M M a I E ] Q Y Y c c c A Y } ",
"i 6 z z t 7 z 7 4 4 7 2 , 2 6 >.U U I I U U ..` E T I U ] U n h q q x B v C F G C C G F M B n x s M x t K J I I A I c M z c S Y ",
"i 7 6 t 6 5 7 7 z 6 m 6 6 7 c +.G I T I U ] +.O.+.O.T ] ] =.6 d a q x m n N B C B F F B B n M a w K x n I I Q W } Y Q A d A I O.",
"7 7 4 4 z 6 z z 6 6 m m M M P *.` [ ..E Z ` +.] ..+.] E { E M h s t a v x n M B B B C v B M w x % U M K W Q Q W I W Q } M v M Y ",
"5 4 2 4 z 5 M M b m m n I I Y :.U U E C C I T T +.] U I U I U B 6 x a x x x v C B F B F C B x x N <.I I Q ~ O.I I Y A Q x v c F ",
"z t i 6 t 6 z M m m M C I U W @.` ] ] ] F T ] T ..O.U I F E F d 6 x 6 a x C v B B C n B n B N x y ~ I R M K M I A M M c v M A A ",
"m b b b m A z z M z M M P ~ Q +.` ] _ [ ` Z I U R R I Q I L M a x a q x v x x B y n G v x n B x 2 M Q E Y A F c A x q x z A A } ",
"K I Y c I W J , I m J K U ~ U X.U ] C I I I [ ] U Z V ` Q I Y s q a q t n a s x B M B B B v n q 6 K O.W I J ~ 3 3 x z ..Y @.O.T ",
"W R E R ~ ~ Q Y R R I I W Y E ` j C U ] C B K I Z ^ l ^ G U I s y x q x x x q x v B F v B n n 6 q E &.{ Q F O.Q U v c A } } ;.} ",
"O.{ E { { <.~ { %.O.~ ~ ..~ @.X.^ / B G E C I F l l ^ V D h T s 7 a 8 q s x N x x v B x y B y 8 q { { E ~ M I B T v c I Y } Q ..",
"%.%.&.&.&.<.1.1.=.=.%.@.O.@.O.` / ^ l j B / l l l l V l D l G G 2 q s q x s s w w a y q q t q y + x M n Q c v m U U E U U ;...#.",
"[ ` ` ` U _ U U ] ] _ E E ] ..B G Z Z Z B B B x N l G _ G _ Z s G G ` G G G N C d Z B Z B h V e e U E U U U E Q ......T ~ ] ` ..",
"+.] Y Z B ..` ..{ +.T C E E ] ] ] ] E E L b x m m m c P W O.O.U F n F F x a a a z z M A I A F ..g ~ U A A Y } } W Y I I I J K W ",
"] v a F U Q Q } { Y I I c F I E ~ $.{ ] ~ J J L ! M A W O.+.%.E U C M F M M M A F F I Q Y c T I M I J M m H Y L A L J I K A M R ",
"` F U U T Y Y ~ Q I I R U t E U E { O.~ U Y K R  .Q W Q O.~ %.U Z C C A A I I Y Y m n P A I z F L M z A c z H m m M b A n b m C ",
"` X.F c U F I Y I Y I A C n { Z R $.Q Y P L I < W W Y P Q | E O.B I n M A I A I I z a I Y F F Y Q m z z u 5 z c m m z c z b c J ",
"[ ..T F U E F I K m M b x m U Z E ~ Y K J H K A | | ~ M b R ~ ] C v C M I A I M J q 6 I z 3 c T U z 5 i i i m m i u 6 u 6 a M F ",
"] E ] C I x x c z M z < . 1 _ M E W E z A R R ~ W O.Q F I I Y E G c x a z M i z M u 4 6 7 z 6 ~ F z 6 5 i 1 u i 4 1 1 5 X b M I ",
"E x F T a t 6 4 6 4 b 5 1 , I C E E R I Q E W L O.%.Q P I W E K G n a t F 4 6 z z 4 4 6 5 1 m Q G 2 < > X o < 4 o 1 o u i a c A ",
"C v v 6 x o 2 2 < , 6 q q 6 b F E Q J Y Y W Q R ~ | Q R Q I W I U x 3 1 m 4 6 z b 6 6 6 M b C } C , o . . X o 5 4 1 3 u c u z A ",
"C 6 q 2 n 1 2 , 2 4 6 c z y I B E Q R I I E R Q ~ R P E R P E U T x 6 3 4 z 4 b x z 7 b { L I Q F 5 > > < 4 5 u z 6 a A A A A A ",
"C a 4 y m o 2 6 6 n K I J J W F W Q I J z M M A J H P R J I { U G v t a v Y m v C I J L { O.O.O.B b 5 > 5 i i m m M c c Y L L A ",
"m 2 6 6 x b i m A ~ E Y Q R ~ ~ { O.E E m J J 7 P P ~ ,.{ O.%.U U F c v I O.} E U ~ Q W O.@.-.&.Z m i 5 b H i m i c z M I M A Y ",
"x q x x I B c b R I W W %.%.T ; { %.O.W I J M z K I { O.E %.%.` ` U U U E @.U ..Q U ..Q @.@.-.1.G i i 5 m m z c m M z A F A c C ",
"t x C n I F B M Q I W Q M C # # { #.W I M b M m R Q ~ Q %.O.&.T ] I C E T } +.O.....O.;.O.U @.1.D i m i J A i m m A c A A u F F ",
"v a c Y I C K I I E E I k ; ; e $.O.~ R K K J K Y W @.O.%.-.&.U X.U C U T ] ] #.+.@.+.O.O.F X.#.D 6 5 c I L L L Q } A S z P U S ",
"v C F C U U n Y ~ Q <.Z = - # e ] ] G G U K Y R Q E ~ Q ~ E Q G ' X.[ ` ` ....X.X.*...+.] G ( #.D ~ } } O.O.} O...} } X.U / $ * ",
"q K C x 6 3 1 q q s w B B w 0 r s w w w h = ; # * $ - : ; g ; S G C a 3 3 2 9 q s u c x a 3 U U +.g T G S B h x h s S Z G G ( k ",
"J E P E R R R R R R R ! I P H e + } } G } k $ * * ; : : * ( &.I d } } Y -.#.#.;.#.*.-.-.-.;.-.3...D ;.#.....T S [ ] ..o.+.*.+...",
"P H R ~ ~ ! ~ ~ ! ~ P P P n H % } S X.} Y } T S : k d ] o.@.@.G T #.;.>.;.&.;.&.O.@.-.;.;.&.6.-.' +.+.;.+.....U +.O.=.2.1.:.:.+.",
"~ ~ ~ ~ ~ ,.{  .$.R P H R P M @ X.@.Y ..} X.@.o.X.} O...Y ....} T #.;.:.&.&.@.-.&.-.-.3.-.3.3.@.` ] &.:.#.#.@.#.=.=.&.=.&.-.:.*.",
"~ ~ ~ ~ ~ $.$.5 ~ | | R P P K 8 &.#.&.O.} ;.o.M } ..@...} O.O.( Y ;.:.-.:.-.-.-.&.-.:.:.-.-.-.X._ *.1.1.#.&.:.*.@.2.1.:.:.&.&.#.",
"! ~ ~ ~ { ,.$.%.$.~ ~ R E ! J 9 :.&.:.:.Q =.@.=.#.#.;.@.@.} O...S :.6.6.4.4.:.3.:.:.4.:.&.-.@.#.] #.:.1.&.3.1.1.3.1.1.-.:.&.#.X.",
"~  .,.~ {  .{ O.$.$.~ $.~ ~ R y T %.&.:.=.@.*.*.&.@.#.O.} @...Y c -.6.6.9.9.9.9.&.4.9.:.-.&.&.-.#.+.-.:.1.1.1.-.1.:.3.1.:.-.@.X.",
"P ~ ,.~ ,.~ ~ $.~ $.~ ~ ~ ~ { 9 @.O.:.:.:.:.} ;.-.:.:.@.} @.} I M ;.4.4.9.:.9.6.-.4.:.:.4.3.:.@.Q 4.1.:.3.3.3.1.1.6.9.3.:.&.-.#.",
"E E R P ~ ~ ! !  .O.~ ~ ~ %.E h &.} ;.:.O.#.;...} #.;.&.#.O.Y v T ..4.I u 3.:.3.;.4.3.9.a 0.>...E >.&.3.5.3.1.1.3.1.9.-.:.3.#...",
"J ~ $.~ ~ ~ ! ~ R R E ! $.$.! y T ..+.&.;.:.:.&.:.I =.@...-.@.} ..#.3.4.:.4.:.4.1.0.6.9.6.6.4.:.F :.:.0.1.4.6.6.3.3.3.:.3.:.;.X.",
"R ~ ~ $.! W ! ~ O.! ! ~ { ~  .w U X.*.=.&.:.4.3.:.&.*.;.:.&.o.....&.9.4.3.3.3.6.-.9.6.6.9.6.3.1.A ;.-.:.1.1.6.4.4.-.3.:.3.3.+.@.",
"~ ~  .$.J | | | $.~ $.$.%. .~ t X.....&.:.:.:.2.4.8.&.;.;.} X.I #.1.4.4.-.6.1.3.3.9.0.3.4.6.3.3.M ;.:.&.5.4.q.6.e.3.&.4.3.:.:.*.",
"~  .$.| $.O.Q b O. .$.~ ~ ~ %.9 X...o.#.:.=.=.T :.>.:.:.;.&.+.I ;.&.3.1.1.1.6.3.3.9.3.3.-.-.4.:.v :.:.:.:.4.4.*.1.4.6.:.4.2.4.@.",
"~ ,.~ { %.$. .O.%.| $.~ ~ W ! v O.) =.*.;.:.:.3.:.>.3.:.@.@.} T ....5.<.%.#.-.9.-.4.3.1.:.1.9.:.q @.4.>.3.6.:.4.2.2.:.2.5.7.q.*.",
"! $.~ $. .%.~ b | Q ~ ~ %.| I q +.o.*.:.=.:.*.;.:.:.:.*.;.O.} F ..&.q.w.:.6.&.5.} #.-.1.3.1.&.&.9 @.8.2.3.4.4.4.2.:.2.2.4.4.1.+.",
"R | ~ ~ | | | ! | ~ ~ | | R b a T =.*.=.@.O.&.@.&.;.&.#.} G Q Y ..#.4.3.3.1.:.&...#.O.3.-.1.1.-.F &.;.&.:.*.:.:.*.-.=.>.2.2.-.#.",
"m L K P Y U Q W Y W L L I m a q C ` C G U C Z v M v F ` T A G G ` ..*.:.2.1.;.X...X.#.+.+.@.+.#.Z ] [ X.....Q T I ] *.*.*.*.+.*."
};
